<svg xmlns="http://www.w3.org/2000/svg" viewBox="0 0 512 512"><title>Artboard 125</title><g id="Book"><rect x="64" y="42.66667" width="405.33333" height="448" rx="42.66667" ry="42.66667" style="fill:#079cff"/><path d="M106.66667,21.33333H405.33333A42.66667,42.66667,0,0,1,448,64V384a42.66667,42.66667,0,0,1-42.66667,42.66667H64a0,0,0,0,1,0,0V64A42.66667,42.66667,0,0,1,106.66667,21.33333Z" style="fill:#079cff"/><rect x="149.33333" y="384" width="256" height="21.33333" rx="10.66666" ry="10.66666" style="fill:#5cbeff"/><rect x="64" y="64" width="42.66667" height="405.33331" rx="21.33331" ry="21.33331" style="fill:#0784ff"/><rect x="64" y="341.33333" width="42.66667" height="85.33333" rx="21.33331" ry="21.33331" style="fill:#005eee"/><path d="M405.33333,426.66667H106.66667a21.33333,21.33333,0,1,0,0,42.66666H405.33338A42.66662,42.66662,0,0,0,448,426.66671V384A42.66711,42.66711,0,0,1,405.33333,426.66667Z" style="fill:#eff2ff"/><rect x="128" y="42.66667" width="21.33333" height="384" rx="10.66666" ry="10.66666" style="fill:#005eee"/><rect x="149.33333" y="42.66667" width="21.33333" height="362.66667" rx="10.66666" ry="10.66666" style="fill:#5cbeff"/><path d="M460.38281,449.39063a10.65469,10.65469,0,0,0-13.76041,6.18229,21.45713,21.45713,0,0,1-19.95573,13.76041h-320a21.33333,21.33333,0,1,1,0-42.66666h288a10.66667,10.66667,0,0,0,0-21.33334h-288a42.66667,42.66667,0,0,0,0,85.33334H426.8151c.01563,0,.03,0,.04558-.00131h.16276l.04557-.0013h.08594c.01823,0,.03646-.0013.056-.0013h.0638l.02083-.0013h.0625c.02084-.0013.04037-.0013.0612-.0013h.02083c.013-.00131.02735-.00131.04037-.00131h.02474c.01432-.0013.03-.0013.04427-.0013h.01693c.02083-.0013.04166-.0013.06119-.0013l.01823-.0013h.04427a.14183.14183,0,0,1,.02344-.0013.38912.38912,0,0,0,.03906-.00131h.02474c.01693,0,.03256-.0013.04948-.0013h.013c.01823-.0013.04037-.0013.0586-.0026h.02083l.043-.0013.02214-.00131c.01432,0,.02864,0,.043-.0013h.01954c.01953,0,.04036-.0013.05989-.0026h.01693c.01692,0,.03-.0013.04557-.0013l.02214-.00131.043-.0013h.01953c.01953-.0013.04036-.0026.05989-.0026h.01042c.01693-.00131.03646-.00261.05338-.00261l.01954-.0013.04427-.0013.01953-.0013c.01692,0,.03385-.00131.04948-.00131l.013-.0013c.02083,0,.04166-.0013.0612-.0026h.01953c.013-.0013.02864-.0013.043-.00261a.12647.12647,0,0,0,.02213-.0013l.04167-.0013.02083-.0013c.02214-.0013.04037-.0013.0612-.00261h.00911c.01693-.0013.03386-.0026.05078-.0026a.1579.1579,0,0,1,.02474-.0013l.04037-.00261.02083-.0013c.01823-.0013.03516-.0013.05469-.0026H429l.0625-.00391.01693-.0013c.01562,0,.02995-.0013.04557-.00261l.01953-.0013c.01823,0,.03386-.0013.05208-.0026h.00782l.0651-.00391.00781-.0013c.01823,0,.03516-.0013.05469-.0026l.01823-.00131.043-.0026.02083-.0013.0586-.00391h.0052l.0586-.00391.01953-.0013c.01432-.0013.02995-.0026.04427-.0026l.01823-.0013.04948-.00391.01432-.0013.0612-.00391.013-.0013c.01693-.0013.03125-.0026.04818-.0026l.01953-.00261.04687-.0026.01563-.0013c.02083-.00131.04036-.00261.0612-.00521h.00911l.05469-.00391.01432-.0013.04948-.00391.01563-.0013c.01953-.0013.03906-.00391.05729-.00521h.00521c.02083-.0013.04036-.0039.06119-.00521l.01693-.0013.04688-.0039.01953-.00131.04427-.0039.01823-.00131c.01953-.0026.03906-.0039.05989-.0052l.01563-.00131.04557-.0039.02214-.00261.04036-.0039.02214-.0013c.01692-.00131.03255-.00261.04948-.00521l.013-.0013c.01953-.00131.03906-.00261.05859-.00521l.01693-.00131.04427-.0039.02083-.00261.04688-.0039.01432-.0013c.01953-.00261.04167-.00391.0612-.00651l.013-.00131.04687-.0039a.14387.14387,0,0,1,.02344-.00261l.03776-.0039.02474-.00261c.01823-.0013.03646-.0039.05469-.00521l.01562-.0026.04688-.00391a.14436.14436,0,0,1,.02474-.0026l.03646-.00391a.17658.17658,0,0,1,.026-.0026l.04036-.00521.01823-.0013c.02083-.00261.03906-.00391.0586-.00651l.02213-.00261.03906-.0039a.16152.16152,0,0,1,.02344-.00261c.01432-.0013.02734-.0039.04167-.0052l.01823-.00131.05989-.00781.01432-.0013.04818-.00521.01823-.0026.04427-.00521.01823-.0013c.01823-.00261.03776-.00521.05469-.00651l.00651-.00131.05989-.00781.01823-.0013c.01563-.00261.02865-.00391.04427-.00521l.01823-.0026c.01563-.00261.03125-.00391.04688-.00521l.01693-.00261.05859-.00781.01693-.0013c.013-.00261.02864-.00391.04166-.00521l.02474-.00391c.01433-.0013.026-.0026.04037-.0052l.01953-.00261c.01823-.0013.03776-.0039.056-.00651l.00781-.0013.056-.00781a.11325.11325,0,0,0,.02083-.00261.352.352,0,0,0,.03907-.00521l.02474-.0026c.013-.0026.02994-.00391.043-.00651l.01562-.0013c.01953-.00261.04036-.00521.05859-.00912l.01693-.0013.04557-.00651.01953-.0026.04167-.00651.02083-.00261.0573-.00781.013-.0013.04817-.00781a.12844.12844,0,0,0,.02214-.00261.35453.35453,0,0,1,.03906-.00521l.02084-.0039c.01562-.00131.02994-.00391.04557-.00651l.01562-.00261.0586-.00781.01823-.00261c.01432-.0026.02734-.0039.04036-.00651l.02474-.0039.03906-.00521.02084-.00391.05729-.00781.01953-.0039.04036-.00521.02084-.00391c.01432-.0026.02864-.00391.04166-.00651l.02084-.0026c.03776-.00651.07942-.013.11849-.01954l.01953-.0026c.013-.0026.02734-.00391.04167-.00651l.02083-.00391.04167-.00651.01822-.0026c.01954-.00391.03907-.00651.0586-.01042l.01953-.0026c.01172-.00261.026-.00391.03776-.00651l.026-.00391.03906-.00651.01953-.00391.04948-.00781.02474-.0039.043-.00782.02474-.0039.03386-.00521a.15363.15363,0,0,1,.026-.00521c.01172-.0026.02734-.00521.03906-.00651l.01953-.00391c.01953-.0026.03776-.00651.05729-.00911l.02084-.00391c.013-.0026.026-.00521.03776-.00651l.02343-.00521a.37884.37884,0,0,0,.03776-.00651l.02344-.0039c.01823-.00261.03776-.00651.05469-.01042l.02214-.0039c.01171-.00131.02473-.00391.03776-.00652l.02474-.0039a.32313.32313,0,0,1,.03776-.00651l.02213-.00521.04167-.00781.01823-.00261c.01953-.0039.03776-.00651.056-.01041l.01953-.00391.04036-.00781.02344-.00391.03646-.00781.02213-.00391.05469-.01041.026-.00391.03386-.00781.026-.00391.03516-.00781.02343-.00391c.01433-.0026.02865-.00521.04427-.00911a.22986.22986,0,0,0,.026-.00521l.04428-.00781.02343-.00521c.013-.00261.02344-.00521.03516-.00651l.02474-.00521.03516-.00781a.23074.23074,0,0,0,.026-.00521c.01692-.00261.03385-.00651.05208-.01042l.02995-.00521a.23014.23014,0,0,1,.026-.0052l.03385-.00782a.15027.15027,0,0,0,.02344-.00521.30829.30829,0,0,0,.03386-.00651l.03255-.00651c.01432-.0026.03-.00651.04557-.00911a.24672.24672,0,0,1,.03-.00651l.02995-.00651a.22705.22705,0,0,0,.02864-.00651l.02995-.00521.03516-.00781a.12208.12208,0,0,0,.02083-.00521c.01823-.00261.03776-.00781.05469-.01042l.026-.00651.03255-.00651.02735-.00651a.2888.2888,0,0,0,.03255-.00651l.02474-.00521c.01692-.0039.03776-.00911.05468-.01172l.01954-.0052.03906-.00782.02474-.00521a.31723.31723,0,0,1,.03385-.00781l.02474-.00521c.013-.0039.02474-.00651.03776-.00911l.03386-.00781c.01432-.00261.02864-.00651.04166-.00912l.02344-.00521.03385-.00781.02605-.00651.03776-.00781.02083-.00521.05339-.01172.02473-.00651.03386-.00781.02474-.00521.03515-.00781.02474-.00651.04948-.01172.01823-.00391c.01563-.0039.02995-.00651.04427-.01041l.02214-.00521.03906-.00912a.09827.09827,0,0,1,.02083-.00521c.013-.0026.02735-.00651.04037-.01041l.01823-.00391c.01823-.00391.03646-.00911.05469-.013l.02213-.00521.03516-.00911a.20841.20841,0,0,0,.02734-.00651l.03255-.00782a.15189.15189,0,0,1,.02344-.0052c.01823-.00521.03646-.00912.05469-.01433l.01953-.0039.03906-.01042.02474-.00651.02995-.00651.02865-.00781.03255-.00782a.37349.37349,0,0,1,.03646-.00911c.013-.00391.02734-.00781.04036-.01042l.02865-.00781.02734-.00651.03125-.00781.02474-.00651.03255-.00782c.01693-.0052.03386-.00911.05078-.01432a.17207.17207,0,0,0,.02474-.00651c.01042-.0026.01953-.0039.03125-.00781l.02995-.00781a.27508.27508,0,0,0,.02734-.00651l.03-.00782.02735-.00781c.01692-.00391.03255-.00781.04948-.013l.02994-.00781.02865-.00781a.20846.20846,0,0,1,.02734-.00652c.01042-.0039.02084-.0052.02995-.00911a.20155.20155,0,0,0,.02995-.00781l.026-.00651c.01823-.00521.03385-.00912.05078-.01433l.03125-.00781.026-.00651a.28384.28384,0,0,1,.03125-.00911l.02474-.00651a.20125.20125,0,0,0,.02995-.00912l.03255-.00781c.01563-.00521.02995-.00912.04558-.013l.02994-.00781.02735-.00782a.28257.28257,0,0,1,.03125-.00911l.02474-.00651.03645-.01042c.01172-.0026.02084-.00651.03256-.00911l.04036-.01172a.219.219,0,0,0,.03125-.00912.15651.15651,0,0,0,.02344-.00651.3021.3021,0,0,0,.03255-.00911l.02474-.00651.03125-.00912.02083-.00651c.02084-.00521.03907-.01041.0599-.01692l.02474-.00651.02995-.00912.026-.00781a.28328.28328,0,0,0,.03125-.00912l.02474-.00651c.01823-.0052.03385-.01041.05078-.01562l.02865-.00781.02994-.00912.02735-.00781a.26153.26153,0,0,0,.02995-.00912l.026-.00781.02995-.00781.04947-.01563.02474-.00781.03386-.00911.02474-.00781.03125-.00912.026-.00911.02995-.00782.04948-.01562c.00911-.00261.01953-.00651.02734-.00781l.03125-.01042a.158.158,0,0,0,.02344-.00651l.03125-.01042.02343-.00651c.02344-.00781.04948-.01562.07422-.02344l.00521-.0013.03776-.01172.01693-.0052.03516-.01172.01953-.00521.03515-.01172.01042-.0026c.02474-.00782.04688-.01563.07161-.02344l.01954-.00521c.01171-.00391.02213-.00781.03255-.01042l.026-.00911.02865-.00912.02994-.00911.03646-.01172.03906-.013a.24161.24161,0,0,0,.02865-.00912l.026-.00781.03125-.01041.02344-.00782.02995-.01041.03906-.01172a.36447.36447,0,0,1,.04036-.013l.02605-.00912.02864-.00911a131.36611,131.36611,0,0,1,.05469-.01823l.03385-.01172.04037-.013a.29276.29276,0,0,1,.03125-.01042c.01041-.0039.02083-.00651.03-.01041l.02474-.00782.02994-.01041.02344-.00782c.02474-.00911.04688-.01562.07292-.02474l.00781-.0026c.00911-.00391.01953-.00651.02995-.01042l.026-.00911.02734-.00912a.27239.27239,0,0,0,.02995-.01041l.026-.00912a.24339.24339,0,0,1,.02865-.00911l.04948-.01823.026-.00781.02865-.01042.02734-.00911.02865-.01042.02343-.00781c.02084-.00782.03907-.01433.0599-.02084l.01823-.00651.03255-.01172a.17336.17336,0,0,0,.02344-.00911.292.292,0,0,0,.03125-.01042l.02213-.00781.03255-.01172.01563-.00521c.02083-.00781.04167-.01562.0625-.02213a.11278.11278,0,0,0,.02213-.00912l.03256-.01041.02213-.00912.03125-.01041a.17373.17373,0,0,0,.02344-.00912l.056-.01953.02213-.00912.03386-.01171.01823-.00651c.013-.00521.02344-.00912.03646-.013l.01562-.00651c.03776-.013.07813-.02864.11719-.043l.01823-.00652c.01172-.0039.02344-.00911.03385-.013l.01953-.00651.03386-.013.01953-.00781c.01953-.00651.04036-.01432.0599-.02214l.01953-.00781.03385-.01172.02083-.00781a.26137.26137,0,0,1,.03386-.013l.01432-.00521c.02734-.01041.056-.02213.08333-.03255a.36172.36172,0,0,0,.03386-.013.13572.13572,0,0,0,.02083-.00781l.03125-.01172.02214-.00912a.22133.22133,0,0,0,.03125-.01172l.01953-.00781c.02213-.00781.043-.01562.0651-.02474l.01433-.00521c.01171-.0052.02473-.00911.03645-.01432l.01563-.00651.03515-.013.01563-.00651c.02474-.01042.04948-.01953.07552-.02995l.00651-.0026c.01172-.00391.02474-.00912.03646-.01433l.01693-.00651c.01172-.0052.02213-.00781.03385-.013l.01953-.00781.11719-.04687.013-.00521c.01172-.00521.02344-.00912.03646-.01433l.01693-.00651c.01171-.0052.02343-.01041.03515-.01432l.01042-.00521c.02474-.00911.04948-.01953.07422-.02994l.01172-.00391c.01041-.00521.02343-.01042.03385-.01432l.01953-.00782.03516-.01432.01172-.00521c.03906-.01562.08073-.03255.11979-.04948l.01562-.00651.03776-.01562.00912-.00261c.043-.01823.08724-.03645.13021-.05468l.0052-.00261c.01433-.00521.02735-.01172.04167-.01693l.00651-.0026c.0586-.02474.11849-.05078.17709-.07552l.00781-.0026c.013-.00651.026-.01172.04036-.01823l.00912-.00391c.043-.01823.08463-.03646.1289-.05469l.00391-.0026a.3755.3755,0,0,0,.04036-.01693l.01042-.0039c.01432-.00652.02734-.01172.04037-.01823h.0013l.13281-.0586.00781-.0026c.013-.00651.02735-.01172.04037-.01823l.00781-.00391c.04167-.01823.08464-.03646.1263-.05468l.00781-.00391a.358.358,0,0,0,.03907-.01823l.01172-.00391.03776-.01823.0052-.0013c.02735-.013.05469-.02474.08073-.03646l.00782-.0039.03906-.01693.01041-.00521.03777-.01692.01041-.00521c.04037-.01823.082-.03646.1211-.05469l.013-.00521c.01172-.00651.02343-.01172.03515-.01693l.01433-.00651c.03906-.01823.08072-.03646.12109-.05468l.00911-.00521.03386-.01563a.07967.07967,0,0,0,.01823-.00911c.013-.00521.02343-.01042.03515-.01563l.00521-.0026.125-.0586.01172-.0052c.013-.00651.026-.01172.03776-.01823l.01042-.00391c.03906-.01953.07682-.03776.11719-.056l.01562-.00781c.01172-.00521.02344-.01042.03516-.01693l.013-.00521.03776-.01823.0013-.0013c.02995-.01432.0599-.02864.08854-.04166v-.00131a.37856.37856,0,0,0,.04037-.01823l.01041-.0052c.01172-.00651.02344-.01172.03646-.01823l.013-.00651c.03906-.01823.07813-.03776.11589-.056l.013-.00651c.013-.00521.02344-.01172.03515-.01693l.01563-.00781c.03906-.01953.07682-.03776.11589-.05729l.01171-.00521c.01172-.00521.02344-.01172.03386-.01693l.01693-.00781c.01041-.00651.02343-.01172.03385-.01693l.013-.00651.07813-.03906.0013-.0013.03515-.01693.01433-.00781c.01172-.00521.02474-.01172.03645-.01823l.00912-.00391.12109-.0625.00912-.00391.03776-.01953.01041-.00521c.013-.00651.02474-.01171.03777-.01953l.0052-.0026c.04167-.02083.08334-.04167.125-.0638l.00651-.00391.03907-.01953.00911-.00521c.04167-.02083.082-.04167.1237-.0638l.00521-.0026a.31385.31385,0,0,1,.03646-.01823l.01432-.00782c.05469-.02864.10937-.05729.16406-.08724l.00781-.0039c.056-.02865.112-.0586.168-.08854l.00651-.00391.04167-.02214c.05859-.03125.11719-.0625.17578-.095h.0013c.05729-.03125.11328-.0625.17058-.09375l.00651-.0026a.37846.37846,0,0,1,.03906-.02214l.00521-.0026c.043-.02344.08333-.04688.1263-.07031l.0013-.00131a.40171.40171,0,0,0,.04037-.02213l.00651-.00261c.056-.03255.11067-.0625.16666-.09375l.00651-.0039c.01433-.00781.02735-.01432.04037-.02214l.0013-.0013c.043-.02344.08594-.04818.1276-.07161l.00261-.00131c.01432-.00781.02734-.01562.04036-.02343l.00651-.00391c.056-.03125.11068-.0638.16667-.09505l.00391-.00261c.01432-.00781.02734-.01562.04036-.02343l.0026-.00131c.04167-.02343.08464-.04817.125-.07291l.00391-.0013c.013-.00782.026-.01563.04037-.02344l.0052-.00391.16537-.09635.00651-.00391c.05338-.03125.10677-.0638.16016-.095l.013-.00781c.01171-.00651.02343-.01433.03385-.02084l.00911-.0052.11719-.07032.00651-.0039.03906-.02344.00521-.00261c.05469-.03385.10938-.0677.16407-.10026l.0052-.0026.16667-.10286c.01432-.00912.02865-.01693.04167-.026l.0026-.0013q.35742-.22266.71094-.45052l.00391-.0013.03906-.026.0026-.0013c.11068-.07162.22-.14323.32943-.21615l.0026-.0013c.30339-.20052.60287-.40495.90235-.61328v-.00131c.05468-.03776.10807-.07552.16276-.11328a42.78434,42.78434,0,0,0,15.32291-19.73307A10.66626,10.66626,0,0,0,460.38281,449.39063Z" style="fill:#0784ff"/><rect x="448" y="64" width="21.33333" height="341.33333" rx="10.66666" ry="10.66666" style="fill:#005eee"/><rect x="106.66667" y="426.66667" width="320" height="21.33333" rx="10.66666" ry="10.66666" style="fill:#ccd4ff"/><rect x="213.33333" y="85.33333" width="128" height="42.66667" rx="21.33331" ry="21.33331" style="fill:gold"/><rect x="234.66667" y="85.33333" width="42.66667" height="42.66667" rx="21.33331" ry="21.33331" style="fill:#ffa300"/><rect x="213.33333" y="170.66667" width="191.99998" height="42.66667" rx="21.33331" ry="21.33331" style="fill:gold"/><rect x="256" y="170.66667" width="85.33329" height="42.66667" rx="21.33331" ry="21.33331" style="fill:#ffa300"/><rect x="341.33333" y="320" width="64" height="21.33333" rx="10.66666" ry="10.66666" style="fill:gold"/><circle cx="138.66667" cy="416" r="10.66667" style="fill:#163969"/><circle cx="160" cy="416" r="10.66667" style="fill:#005eee"/></g></svg>