<svg xmlns="http://www.w3.org/2000/svg" viewBox="0 0 512 512"><title>Artboard 111</title><g id="Opened_Book" data-name="Opened Book"><circle cx="256" cy="426.66667" r="42.66667" style="fill:#0784ff"/><path d="M426.66667,469.33333,256,448,85.33333,469.33333a42.66665,42.66665,0,0,1-42.66666-42.66666V149.33333a42.66665,42.66665,0,0,1,42.66666-42.66666l128-21.33334h.0001A42.66663,42.66663,0,0,1,256,128v-.00009a42.66654,42.66654,0,0,1,42.66654-42.66654h0l128.00009,21.33334a42.66665,42.66665,0,0,1,42.66666,42.66666V426.66667A42.66665,42.66665,0,0,1,426.66667,469.33333Z" style="fill:#0784ff"/><path d="M53.33333,405.1488a10.66662,10.66662,0,0,0-10.66666,10.66667v10.8512a42.6672,42.6672,0,0,0,42.66666,42.66666h0l136.70826-17.08862A42.46319,42.46319,0,0,0,256,469.33333l.08716-.00008.0249-.00008.06136-.0002.03288-.00017.05387-.00028.03443-.0002.05232-.00041.036-.00029.05111-.00048.03556-.00041.05168-.00057.03548-.00045.054-.00073.03206-.00049.05925-.00093.02783-.00045.08585-.00155.01441-.00028.071-.00143.03207-.00069.05477-.00122.03426-.00081.05143-.00127.03686-.00093.04948-.0013.03736-.00106.04948-.00138.03637-.0011.051-.00155.036-.00114.05062-.00167.0354-.00118.06258-.00215.0227-.00082.08545-.00317.02409-.00094.06128-.0024.03434-.00138.05078-.00212.03793-.00162.04842-.00212.03646-.00163.05029-.00228.03662-.00171.049-.00232.03662-.00179.04964-.00248.03695-.00183.05322-.00277.03109-.00162.07162-.00387.01977-.0011.0791-.00443.029-.00167.05567-.00326.0341-.002.05289-.00322.03345-.00207.05086-.00317.03679-.00232.04858-.00318.03736-.00244.04711-.00313.0389-.00265.04826-.00333.03622-.00249.05509-.0039.02962-.00212.0844-.00618.01472-.0011.06975-.00525.03182-.00248.05322-.00411.03491-.00277.04973-.00395.03678-.003.04875-.004.03621-.003.04785-.004.03874-.00326.04687-.00407.03671-.00317.05216-.0046.03231-.00285.06445-.00582.0197-.00175.08422-.00781.02434-.00228.06014-.00569.03231-.0031.05224-.005.03467-.00338.0498-.00492.03671-.00366.04655-.00472.039-.004.04622-.00476.0376-.00391.04826-.00508.03556-.00375.05176-.00557.033-.00354.06071-.00663.02946-.00326.07625-.0085.02938-.0033.05469-.00623.03491-.004.04891-.00566.03572-.00419.04851-.00574.03654-.00435.04882-.00586.03386-.00411.05135-.00627.03377-.00415.0507-.0063.03329-.00416.05159-.00651.033-.00419.08187-.01054.01937-.00252.06258-.00818.03809-.005.046-.00615.03784-.00508.04516-.00611.039-.00529.04558-.00626.03719-.00513.0459-.00643.03849-.00537.04525-.00643.03759-.00533.04769-.00683.03532-.00513.05672-.00826.026-.00379.08236-.0122.02336-.0035.05908-.00887.0332-.005.05-.00765.036-.00553.04647-.00716.0376-.00586.04541-.00712.03792-.00594.04557-.00725.03687-.0059.0463-.00744.03728-.006.04825-.00785.03353-.00549.06242-.0103.02018-.00333.08187-.01372.02694-.00455.05444-.00924.03589-.00614.04688-.00806.03727-.00643.04435-.00773.038-.00663.04614-.00814.036-.00635.04614-.00822.03662-.00655.048-.00867.03377-.0061.05664-.01033.02474-.00452.08211-.01518.0131-.00244.0682-.01274.03434-.00651.04745-.009.03523-.00671.04721-.009.03686-.00708.04435-.00858.038-.00741.04411-.00862.03776-.00741.04581-.009.03516-.007.04712-.0094.03572-.00716.04753-.0096.03377-.00684.07821-.016.035-.0072.04737-.00977.03572-.00745.04517-.00939.03743-.0079.04476-.00944.03654-.00777.04492-.00952.03614-.00773.04712-.01018.03409-.00736.047-.01021.035-.00765.048-.0105.033-.00729.05591-.01241.02514-.00557.07968-.01782.02644-.006.05437-.01229.03312-.00757.04785-.01091.0341-.00785.04638-.0107.037-.00859.04338-.01009.03719-.00866.04329-.01018.03841-.00907.04257-.01009.03735-.00887.04476-.0107.03621-.00867.07487-.01811.01343-.00325.06958-.017.0319-.00781.04932-.01213.0345-.00854.04427-.011.0385-.0096.04166-.01046.03915-.00985.04093-.01033.03866-.00977.0415-.01058.03955-.01013.03866-.00993.04085-.0105.045-.01167.03394-.00883.07788-.02035.02816-.0074.05078-.01343.03768-.01.0415-.011.041-.011.03784-.01018.041-.011.03857-.01042.04175-.01135.037-.01009.04166-.0114.03784-.01041.04159-.01144.04012-.01111.03768-.01045.04744-.01323.03719-.01041.07137-.02011.0372-.01053.04052-.01152.04037-.01152.03979-.01139.03906-.01123.03866-.01115.04126-.01192.03784-.011.04126-.012.03622-.01058.04215-.01241.03833-.01127.04-.01184.03719-.01107.04167-.01241.03857-.01152.06885-.02071.04557-.01375.0389-.0118.03906-.01188.04013-.01225.03816-.01172.04069-.01249.03776-.01168.03955-.01221.03833-.01192.04175-.013.03451-.01078.04313-.01359.03434-.01078.04395-.01392.03222-.01021.045-.01433.01806-.00578.10612-.034.02629-.00851.044-.01424.03378-.011.04183-.01364.03629-.01184.04256-.014.033-.01087.04493-.01485.033-.0109.04313-.01433.0345-.01151.04273-.01428.03361-.01128.04435-.01493.02376-.00806c.05713-.01928.113-.03833.17-.05782l.032-.011.044-.01514.03239-.01119.04541-.01575.02995-.01037.047-.0164.03027-.01058.044-.01546.03328-.01172.04371-.01542.03279-.01164.04321-.0153.0306-.0109.0472-.01685.01539-.00553.12-.04322.01066-.00382.04875-.0177.02775-.01009.04655-.017.029-.01058.04557-.01676.03133-.01152.04419-.01632.03117-.01155.04435-.01648.03239-.01209.04313-.01611.03215-.012.04362-.0164.03035-.01148c.06071-.02291.12012-.04549.18067-.06864l.00993-.00379.05159-.01981.024-.00924.0498-.01924.02491-.00965.04817-.01872.02726-.01058.04778-.01867.02685-.01054.04688-.01839.02775-.01091.04882-.01928.02092-.00831.05355-.02124.0122-.00484q.10133-.04033.2024-.08117l.00057-.00025.05631-.02283.01953-.00789.05087-.02075.02343-.00956.04817-.01974.0276-.01131.0472-.01945.02441-.01.05078-.021.02076-.00862.05346-.02226.015-.00627c.08838-.03686.17594-.07377.26408-.11124l.00732-.00314.05461-.02327.0201-.00859.052-.02234.02075-.00891.05192-.02234.02083-.009.052-.0225.02116-.0092.051-.02221.02124-.00928.053-.02319.01172-.00513c.0861-.0378.17318-.07638.259-.11475l.013-.00582.05371-.02408.01978-.00888.05273-.02376.01856-.00838.05249-.02376.02059-.00936.05257-.02389.01644-.00752.05656-.02584.01041-.00476c.11141-.05111.22388-.10323.33472-.15524l.00488-.00228.05892-.02775.01376-.00647.05631-.02661.015-.00708.05477-.026.01669-.00793.05566-.02653.01237-.00594.05859-.02808.00765-.00366c.11109-.05339.22331-.10791.33383-.16223l.00439-.00216.06022-.02966L274.60368,465l.05656-.028.01416-.007.05574-.02775.01424-.00708.05738-.02865.00765-.00382q.198-.0992.39551-.20061l.00984-.00508.05575-.02873.015-.00777.05559-.02877.01245-.00647.05761-.02991.00936-.00492.06136-.032.00114-.00061c.11239-.05884.2229-.11731.3348-.17713l.001-.00053.06372-.03414.00464-.00248.061-.03283.00806-.00436.06185-.03345.00333-.00179.065-.03523.00032-.00021c.17822-.09692.35482-.19462.5315-.29406l.00122-.0007c.21671-.12194.43131-.24519.64567-.37081a10.66667,10.66667,0,0,0-10.79753-18.399A20.46019,20.46019,0,0,1,256,448a21.134,21.134,0,0,1-16.9314-8.608,21.32806,21.32806,0,0,0-19.67317-8.316L84.23014,447.9718A21.35968,21.35968,0,0,1,64,426.66667v-10.8512A10.66663,10.66663,0,0,0,53.33333,405.1488Zm263.25985,29.0094a10.66731,10.66731,0,0,0-1.314,21.25163l63.89412,7.98682.0262.00325.40267.05034.09408.01176,3.32764.416.06119.00765.09392.01172.03385.00423.19841.02482.14843.01856.52067.06506.15072.01884,2.92448.36556.12353.01546.15544.01941.09066.01135.08821.011.02312.00289,2.30273.28784.05013.00627,2.423.30285.00538.0007.58138.07267.04638.00578.39649.04956.06022.00752.72314.09042.00017,0,.09407.01176.077.0096.86849.10856.00976.00122.28109.03512.01758.0022.13248.0166.01823.00223.272.034.05452.0068.084.0105.02425.003.4025.05029.17676.02214.24886.03108.05762.0072.11621.01453.0695.00867.35791.04476.0555.00691.07406.00928.24039.03007.07813.00973.16894.02116.53858.0673.088.011.03711.00464.20345.02543.1154.01445.20817.026.082.01025.01644.00208.3973.04968.07861.00981.02783.00346.10449.01306.22543.0282.20508.02563.43294.05412.11735.01469.11051.01379.17172.02149.06608.00826.17561.02193.07878.00984.23324.02918.06575.00822.51253.06405.00082.00008.26562.0332.01481.00187.2308.02885.07031.00879.20817.026.03988.005.24023.03.0389.00485,1.17627.147.01872.00232.09342.01172.06446.008.15787.01973.12207.0153.14095.01762.05827.00728.243.03036.0835.01045.4624.05778.01774.00224.97933.1224.13721.01717.38818.0485.051.00639.1914.02393.05453.00679.08138.01017.30989.03874.05811.00728.0363.00452.13313.01664.464.058.09636.012.15316.01913.111.01387.06071.00757.17627.022.28922.03618.16358.02042.09733.01217.89437.11182.01432.00179.91471.11434.00863.00105.43017.0538.04151.00516.07731.00969.02116.00264.20556.02568.04623.00578.0293.00366.06949.00871.40984.05122.01888.00236,1.26871.15857.04069.00509.81039.10132.00032,0,.778.09725.06038.00753.06608.00826.00375.00048c1.81136.2264,3.42057.42758,4.79655.59957l.02083.00261.56364.07043.02.00252.06168.0077.002.00024q1.09911.13738,1.95931.24491l.0026.00037,1.49886.18734.00863.0011,1.24463.15555h0l.07291-.00008.02377,0,.0498-.00012.02686-.00012.04622-.00021.029-.00016.04378-.00024.03142-.00025.04166-.00032.03125-.00029.04281-.0004.03011-.00029.04509-.00053.02766-.00032.04607-.00061.02815-.00037.06592-.001.00553-.00008.07325-.00122.02067-.00037.05241-.001.02718-.00053.04443-.0009.03125-.00065.04281-.00093.02962-.0007.04346-.001.02946-.00074.04394-.00113.03011-.00078.04086-.0011.03271-.00093.043-.00122.02864-.00086.05876-.00179.01335-.0004.07291-.00241.01726-.00056.055-.00188.02637-.001.04671-.00167.02718-.001.04508-.00167.03012-.00118.04231-.00167.03076-.00126.04053-.00167.03337-.00138.04085-.00179.03011-.0013.04492-.002.02784-.00127.05468-.00256.01693-.00077.07161-.00346.02051-.001.05339-.00268.02327-.00122.04737-.00245.03108-.00162.04134-.00224.03174-.00171.03955-.0022.03337-.00187.03971-.00228.03255-.00187.0389-.00232.03288-.002.04427-.00265.02653-.00163.05648-.00354.01514-.00093.07275-.00468.01026-.00065.06217-.00411.02181-.00147.0498-.00337.0267-.00183.04508-.00314.02979-.00211.04183-.003.02978-.00216.04378-.00317.02832-.00208.0459-.00346.02474-.00187.05046-.00382.0223-.00171.05843-.0046.01269-.001.14567-.0118.01986-.00163.04964-.00419.03028-.00252.043-.0037.027-.00232.04541-.00395.0267-.00236.04589-.00407.02653-.0024.04509-.00407.02718-.00248.04606-.00423.02572-.0024.05175-.00488.01921-.0018.14421-.014.01513-.00151.05729-.00569.01807-.00184.054-.00545.021-.00215.051-.00525.02213-.00228.04867-.00513.0249-.0026.04867-.00521.02213-.00236.05127-.00554.021-.00227.05631-.00619.01465-.00167.06624-.00736.00619-.00069.07275-.0083.00781-.0009.06267-.0072.02083-.00244.051-.006.02294-.00269.04753-.00566.02572-.00309.04655-.00561.0249-.00306.04655-.00565.02523-.00313.04768-.0059.02328-.00293.05355-.00672.01676-.00215.1447-.0186.00211-.00029.06869-.009.01595-.00207.055-.00733.02132-.00289.04964-.00667.02246-.003.049-.00672.02311-.00317.04948-.00688.02083-.00288.05094-.00713.02133-.003.05485-.00777.015-.00216c.0721-.01029.14355-.02071.21566-.03137l.01172-.00175.05908-.00879.01725-.0026.05355-.0081.019-.00289.05241-.008.02051-.00314.04915-.0076.02263-.0035.05127-.008.01871-.00293.05778-.00911.012-.00192c.07177-.01143.144-.02307.21565-.03487l.00814-.00134.06218-.01025.01709-.00285.05192-.00867.02246-.00378.04785-.00806.02393-.00407.04752-.0081.0223-.00382.04785-.00826.02393-.00415.05013-.00871.01839-.00326.05794-.01017.01286-.00224.14258-.02551.00635-.00114.063-.01139.01856-.00342.05045-.00924.02263-.00415.04866-.009.02165-.004.0485-.00907.02149-.004.05159-.00972.01791-.00338.05485-.01042.01513-.00293.06332-.01216.00635-.00122.14355-.028.00195-.00041.06706-.01322.01546-.00309.0542-.01079.01872-.00378.05159-.01033.019-.00387.05273-.0107.01595-.00326.05485-.01123.01644-.00337.05778-.012.01091-.00224.0651-.01359.00488-.001.14274-.03011.00358-.00074.06739-.01444.00748-.00159.06088-.01314.01578-.00342.05469-.01188.01628-.00358.05127-.01123.02116-.00468.05045-.01111.01791-.004.05338-.01192.01595-.00358.05941-.01331.0096-.00219.0669-.01514.00309-.00073.14128-.03235.0083-.00195.06038-.014.0153-.00358.05225-.01221.02181-.00513.04768-.01123.02051-.00488.04867-.01156.02164-.00512.04834-.01156.02-.00484.05225-.01257.01628-.004c.069-.01672.14-.03406.20882-.05111l.00732-.00183.06039-.015.01643-.00415.05258-.01315.01855-.00468.04867-.01224.022-.00558.048-.0122.02-.00509.04965-.0127.01871-.0048.05469-.01412.01335-.00342.06526-.01692.00261-.00069.14046-.03687.00391-.001.064-.017.01335-.00354.05436-.01449.01839-.005.04948-.01331.01953-.00529.04916-.01326.02018-.0055.04866-.01326.01937-.00525.05046-.01392.01758-.0048.06233-.01721.00423-.00114.13916-.03886.005-.00142.06234-.01754.01481-.00419.05306-.01506.019-.00545.0459-.0131.0249-.00708.04557-.01314.01954-.00562.05029-.01453.01725-.005.05453-.01587.01253-.0037.05745-.01681.01107-.00325q.10278-.03023.20508-.06084l.01123-.00337.05469-.0164.019-.00578.05029-.01518.01547-.00468.0524-.016.01628-.005.054-.01652.01237-.00383.05566-.01713.013-.004.0638-.01978.00212-.00069c.068-.02112.13623-.04252.2041-.064l.01742-.00553.0498-.01579.01921-.0061.04736-.01514.02067-.00663.04688-.01506.02018-.00651.04687-.01513.02-.00647.04834-.01571.01888-.00614.05013-.0164.01612-.00529.06-.01974.00635-.00207.068-.0225.00179-.00061.06445-.02145.01432-.00476.05143-.01721.02116-.00712.04427-.01489.02344-.0079.04265-.0144.02522-.00859.04-.01359.026-.00891.04021-.01371.02636-.009.03923-.01355.02653-.00912.03629-.01253.03077-.01066.05468-.019.02832-.00989.04476-.01567.02458-.00858.0415-.01461.02751-.00973.036-.01273.03044-.01079.03662-.013.02734-.00976.03792-.01355.02751-.00985.03906-.014.02653-.00952.03793-.01375.02734-.00989.04248-.01542.02214-.00806.12955-.04744.02181-.008.04232-.01566.02767-.01018.03743-.01395.02719-.01013.0371-.0138.0306-.01147.03288-.01229.03174-.01192.0319-.012.03369-.01269.03207-.01221.03027-.01147.03613-.01372.02962-.01127.03923-.015.03337-.01278.05306-.02043.02685-.01037.03825-.01485.02718-.01054.0363-.01412.02978-.01156.03483-.01359.02995-.01172.033-.013.0319-.01257.03272-.01286.03108-.01229.03272-.013.03141-.01245.03255-.013.03158-.01253.03157-.01266.0542-.02177.03858-.0155.03694-.01493.0254-.01026.03938-.016.0236-.00956.03793-.01546.02539-.01034.03873-.01591.0236-.00968.03809-.01563.02588-.0107.0376-.0155.02425-.01009.03808-.01575.02426-.01017.03955-.01644.01692-.007c.04867-.02039.09554-.04.144-.06059l.02327-.00976.03874-.01648.02262-.00957.03972-.01692.02327-.00989.03955-.01693.02181-.00936.04-.01717.02246-.00968.04069-.0175.01872-.00814.04411-.019.0153-.00671.04655-.02019.00862-.00382c.07682-.03349.15235-.06665.229-.10059l.0013-.00061.05127-.02274.01123-.005.049-.02181.01172-.00525.048-.02152.013-.00578.04818-.02165.012-.00545.04818-.02177.01123-.00508c.11442-.05176.22917-.10429.3431-.157l.00326-.00146.05517-.02564.00423-.00195.05323-.02486.00781-.00358.05355-.02507.00293-.00138c.13671-.06413.27132-.12809.40739-.19364v0l.05647-.02722.00293-.00146.05469-.02649.00456-.0022a42.84184,42.84184,0,0,0,14.006-10.901,10.66677,10.66677,0,0,0-16.32227-13.73682,21.31811,21.31811,0,0,1-15.19775,7.541l-109.83927-13.73a10.77049,10.77049,0,0,0-1.33643-.0835Z" style="fill:#005eee"/><rect x="21.33333" y="85.33333" width="469.33333" height="341.33333" rx="42.66667" ry="42.66667" style="fill:#b8c2ff"/><rect x="426.66667" y="106.66667" width="64" height="298.66667" rx="31.99997" ry="31.99997" style="fill:#7388ff"/><path d="M256,426.66667,81.08784,409.17545a42.66666,42.66666,0,0,1-38.42117-42.45492V111.14614A42.66666,42.66666,0,0,1,89.57883,68.69122L256,85.33333Z" style="fill:#dfe5ff"/><path d="M256,426.66667l174.91216-17.49122a42.66666,42.66666,0,0,0,38.42117-42.45492V111.14614a42.66666,42.66666,0,0,0-46.91216-42.45492L256,85.33333Z" style="fill:#ccd4ff"/><path d="M426.66667,85.33333a21.33272,21.33272,0,0,0-21.33334,21.33334v256H320a21.33333,21.33333,0,0,0,0,42.66666h85.33333A42.66666,42.66666,0,0,0,448,362.66667v-256A21.33272,21.33272,0,0,0,426.66667,85.33333Z" style="fill:#b8c2ff"/><path d="M256,64,122.87578,42.49A33.39968,33.39968,0,0,0,95.1159,52.01461l0,0a33.39968,33.39968,0,0,0-9.78255,23.61715V345.81151a42.66666,42.66666,0,0,0,37.95492,42.4057L256,405.33333Z" style="fill:#eff2ff"/><path d="M256,64,389.12422,42.30869a33.39974,33.39974,0,0,1,27.75988,9.52463l0,0a33.39972,33.39972,0,0,1,9.78255,23.61716V341.59429A42.66667,42.66667,0,0,1,388.71175,384L256,405.33333Z" style="fill:#dfe5ff"/><rect x="256" y="64" width="42.66667" height="341.33333" rx="21.33331" ry="21.33331" style="fill:#ccd4ff"/><rect x="256" y="85.33333" width="21.33333" height="298.66667" rx="10.66666" ry="10.66666" style="fill:#a4b1ff"/><rect x="298.66667" y="64" width="42.66667" height="213.33333" rx="21.33331" ry="21.33331" style="fill:#a4b1ff"/><path d="M224.01042,277.33333a10.442,10.442,0,0,1-2.10417-.20833L115.23958,255.79167a10.66586,10.66586,0,0,1,4.1875-20.91667l106.66667,21.33333a10.66631,10.66631,0,0,1-2.08333,21.125Z" style="fill:#002755"/><path d="M224.01042,213.35264a10.442,10.442,0,0,1-2.10417-.20833L115.23958,191.811a10.66585,10.66585,0,1,1,4.1875-20.91666l106.66667,21.33333a10.66631,10.66631,0,0,1-2.08333,21.125Z" style="fill:#002755"/><path d="M224.01042,149.33333a10.442,10.442,0,0,1-2.10417-.20833l-53.33333-10.66667a10.66711,10.66711,0,0,1-8.36459-12.55208,10.55659,10.55659,0,0,1,12.55209-8.36458l53.33333,10.66666a10.66631,10.66631,0,0,1-2.08333,21.125Z" style="fill:#002755"/><path d="M224.01042,341.34621a10.442,10.442,0,0,1-2.10417-.20833L115.23958,319.80455a10.66586,10.66586,0,0,1,4.1875-20.91667l106.66667,21.33333a10.66631,10.66631,0,0,1-2.08333,21.125Z" style="fill:#002755"/><path d="M287.98958,277.33333a10.66631,10.66631,0,0,1-2.08333-21.125L392.57292,234.875a10.66586,10.66586,0,0,1,4.1875,20.91667L290.09375,277.125A10.442,10.442,0,0,1,287.98958,277.33333Z" style="fill:#002755"/><path d="M287.98958,213.35264a10.66631,10.66631,0,0,1-2.08333-21.125l106.66667-21.33333a10.66585,10.66585,0,0,1,4.1875,20.91666L290.09375,213.14431A10.442,10.442,0,0,1,287.98958,213.35264Z" style="fill:#002755"/><path d="M287.98958,149.33333a10.66631,10.66631,0,0,1-2.08333-21.125L392.57292,106.875a10.66586,10.66586,0,0,1,4.1875,20.91667L290.09375,149.125A10.442,10.442,0,0,1,287.98958,149.33333Z" style="fill:#002755"/><path d="M287.98958,341.34621a10.66631,10.66631,0,0,1-2.08333-21.125l106.66667-21.33333a10.66586,10.66586,0,0,1,4.1875,20.91667L290.09375,341.13788A10.442,10.442,0,0,1,287.98958,341.34621Z" style="fill:#002755"/><rect x="277.33333" y="42.66667" width="42.66667" height="213.33333" rx="21.33331" ry="21.33331" style="fill:gold"/><circle cx="128" cy="106.66667" r="21.33333" style="fill:#002755"/></g></svg>