<svg xmlns="http://www.w3.org/2000/svg" viewBox="0 0 512 512"><title>Artboard 119</title><g id="Note_Book" data-name="Note Book"><path d="M85.33333,298.66667a64.07,64.07,0,0,1-64-64,21.33334,21.33334,0,1,1,42.66667,0A21.35443,21.35443,0,0,0,85.33333,256a21.33334,21.33334,0,1,1,0,42.66667Z" style="fill:#cdd4df"/><path d="M85.33333,426.66667a64.07,64.07,0,0,1-64-64,21.33334,21.33334,0,1,1,42.66667,0A21.35443,21.35443,0,0,0,85.33333,384a21.33334,21.33334,0,1,1,0,42.66667Z" style="fill:#cdd4df"/><path d="M85.33333,170.66667a64.07,64.07,0,0,1-64-64,21.33334,21.33334,0,1,1,42.66667,0A21.35443,21.35443,0,0,0,85.33333,128a21.33334,21.33334,0,1,1,0,42.66667Z" style="fill:#cdd4df"/><rect x="64" y="21.33333" width="384" height="469.33333" rx="42.66667" ry="42.66667" style="fill:#33527d"/><rect x="256" y="448" width="149.33333" height="42.66667" rx="21.33331" ry="21.33331" style="fill:#163969"/><rect x="64" y="42.66667" width="384" height="426.66667" rx="42.66667" ry="42.66667" style="fill:gold"/><rect x="170.66667" y="426.66667" width="234.66667" height="42.66667" rx="21.33331" ry="21.33331" style="fill:#ffbe00"/><path d="M250.59526,22.854,459.23941,77.57844A42.66665,42.66665,0,0,1,489.146,129.98533L399.145,459.23941a42.66667,42.66667,0,0,1-52.4069,29.90663L138.09392,434.42156a42.66667,42.66667,0,0,1-29.90663-52.40689L198.18837,52.76059A42.66665,42.66665,0,0,1,250.59526,22.854Z" style="fill:#dfe5ff"/><rect x="256" y="426.66667" width="149.33333" height="42.66667" rx="21.33331" ry="21.33331" style="fill:#b8c2ff"/><rect x="426.66667" y="85.33333" width="42.66667" height="128" rx="21.33331" ry="21.33331" style="fill:#b8c2ff"/><rect x="64" y="42.66667" width="384" height="405.33333" rx="42.66667" ry="42.66667" style="fill:#ffffc5"/><rect x="64" y="21.33333" width="384" height="405.33333" rx="42.66667" ry="42.66667" style="fill:#33527d"/><rect x="405.33333" y="85.33333" width="21.33333" height="277.33333" rx="10.66666" ry="10.66666" style="fill:#5e7599"/><rect x="64" y="213.33333" width="42.66667" height="85.33333" rx="21.33331" ry="21.33331" style="fill:#163969"/><rect x="64" y="85.33333" width="42.66667" height="85.33333" rx="21.33331" ry="21.33331" style="fill:#163969"/><rect x="64" y="341.33333" width="42.66667" height="63.99998" rx="21.33331" ry="21.33331" style="fill:#163969"/><path d="M106.66667,426.66667H405.33333l.06706-.00006.026-.00006.04167-.00009.02734-.00011.04037-.00016.02929-.00015.03776-.00021.03125-.00021.03711-.00027.02865-.00024.03906-.00034.0293-.00029.03776-.00039.02995-.00034.03776-.00044.03125-.0004.03581-.00049.03125-.00045.0358-.00054.03255-.00052.03451-.00057.03255-.00056.03516-.00064.03255-.00062.03451-.00069.0319-.00065.0358-.00076.0319-.00071.03646-.00082.02995-.00072.03581-.00088.0332-.00082.03386-.00088.03255-.00086.03581-.001.03124-.00089.03581-.001.03125-.00092.03255-.001.03581-.00112.02539-.00083.041-.00132.03125-.00108.056-.00194.04622-.00163.026-.001.03972-.00148.0345-.00134.03255-.00127.0319-.00128.03516-.00142.03-.00125.03776-.00158.02995-.00129.03646-.00157.0319-.00146.03515-.00157.03125-.00144.03581-.00167.02995-.00145.03776-.00181.0306-.0015.03385-.00169.03386-.00174.03385-.00174.0319-.00164.03581-.00191.02995-.00163.03711-.002.03059-.0017.03451-.002.0319-.0018.03646-.00212.03-.00175.03646-.00214.03059-.00182.03581-.00222.03125-.00191.0319-.002.03516-.00221.03125-.002.03516-.0023.03059-.002.03581-.00237.03451-.00231.03125-.00215.03841-.00265.03515-.00239.0586-.00416.02474-.00176.04166-.003.02865-.00208.03776-.00279.03385-.00255.03126-.00234.03645-.00281.0306-.00234.0319-.00249.03451-.00273.0332-.0026.03255-.00265.03256-.00264.0345-.00278.0319-.00266.03451-.00289.02995-.00251.03645-.00309.0319-.00273.03256-.0028.0345-.003.0306-.00272.03646-.00323.0293-.00262.03515-.00316.03255-.003.03386-.00309.03255-.003.0319-.003.03451-.00326.03255-.003.03385-.00329.0306-.00292.03581-.00351.0319-.00311.02865-.00287.03711-.00368.02408-.0024.04362-.00441.00977-.001.054-.00558.01692-.00172q.11035-.01145.22071-.0235l.02278-.00246.03907-.00433.026-.00283.03906-.00435.02669-.003.03841-.00437.0267-.003.03645-.00421.0306-.00351.03321-.00385.0319-.00372.03385-.004.0319-.00377.03321-.004.0319-.00379.0332-.004.0332-.00405.0319-.00393.03256-.004.03385-.00419.03125-.0039.03516-.0044.028-.00357.03711-.00468.02995-.00389.0345-.00436.0306-.004.03451-.0045.0306-.004.0345-.00455.02995-.00391.03581-.00481.02995-.004.0345-.00461.0306-.00419.03516-.00473.02669-.00371.03841-.0053.01628-.00228c.05338-.00736.10547-.01475.15885-.02231l.01693-.00248.04036-.00578.02474-.00357.03711-.00534.028-.00411.03776-.00551.02669-.004.03971-.00585.02409-.00364.041-.00614.02409-.00357.04036-.00618.02344-.0035.04166-.00646.02279-.00349.04037-.00621.02473-.00379.03972-.00629.02474-.00385.03776-.006.028-.00434.03776-.00607.02539-.00408.03907-.00621.02474-.00408.04036-.00651.02409-.00391.03906-.00643.02474-.004.04167-.0069.02148-.0036.04037-.00674.02669-.00446.03841-.00653.02474-.00414.03841-.00657.02539-.00429.041-.00706.01172-.002.05143-.00894.00781-.00133c.09961-.01735.19792-.03486.29753-.05289l.01107-.002.04036-.00741.026-.00466.03906-.00723.02279-.00421.03971-.00736.026-.00482.03776-.00708.02474-.00462.03906-.00737.02539-.00483.03906-.00746.02344-.00445.03971-.00759.02539-.00485.03776-.00737.026-.00507.0358-.007.0293-.00575.03581-.007.026-.00516.03776-.00745.026-.00523.03841-.00762.02279-.00461.041-.00818.02214-.00447.043-.00872.01432-.00294.04948-.01015.00977-.002.05468-.01121.00065-.00024.0612-.01263.00261-.00054c.123-.02564.24674-.052.36979-.07867l.00065-.00017.05273-.01147.01107-.00249.04362-.00952.02083-.00469.04037-.00894.02279-.005.04231-.00953.01953-.00425.04428-.00992.01888-.00428.04231-.00957.02019-.00469.043-.0097.02019-.00458.043-.01.01822-.00409.04493-.0104.01888-.00431.04231-.00984.02084-.00494.04232-.00983.02018-.00473.04232-.01006.01822-.00436.04493-.01059.01757-.00424.04428-.01046.01888-.00463.04427-.01053.01627-.00405.04558-.011.015-.00351.04883-.01192.00586-.00147.05534-.01357.00716-.00174c.1582-.039.319-.07957.47721-.12036l.00846-.00224.05469-.01414.00586-.0015.05339-.0139.00911-.00248.05274-.01375.00846-.00228.05013-.01315.01367-.00376.04818-.01277.01237-.00323.04948-.01329.01237-.00319.04948-.01337.01106-.003.04948-.01344.013-.00347.04883-.01336.01107-.003.05078-.014.00912-.00243.054-.01485.00261-.00076.05859-.01623.00065-.00006c.222-.06179.44271-.125.66406-.19025l.00131-.00043.05273-.0157.00977-.00288.05143-.01532.00911-.00265.05013-.015.01107-.00343.05078-.01519.00912-.0028.05078-.01538.00976-.003.05339-.01626.00456-.0014.05533-.01678.00586-.00194.056-.017.00261-.00083.05729-.01776.0026-.00075c.2793-.08671.556-.1755.83269-.26777l.0013-.00034.05794-.0194.0013-.00046.056-.01858.00521-.00177.056-.019.00195-.00066.05664-.01911.00391-.00128.05469-.01861.00521-.00185.05208-.01781.00911-.00322.05144-.01746.00716-.0026.05208-.01805.00781-.00252.05078-.01765.01042-.00362.04883-.017.01042-.0038.05143-.0178.0026-.001q.41114-.1443.819-.29707l.0013-.00038.054-.02035.00586-.00221.05469-.0207.0026-.00088.05664-.02138.0013-.00059.11394-.04336.00455-.00171.05534-.02135.00065-.00013.058-.02227v-.00018q1.2207-.47142,2.40429-1.01436l.00065-.00034a42.673,42.673,0,0,0,8.401-5.10158l.0039-.00269.04558-.03581.002-.00141.04622-.03594.00261-.00225.04687-.03679.00065-.00009.04688-.03708.00195-.00159q.48046-.37793.94857-.7688l.0039-.00321.04428-.03678.0026-.00231.043-.03592.00521-.00449.04362-.0365.00195-.00178.04362-.03663.00521-.00428.043-.03638.00195-.00211.04362-.03694.00521-.004.04166-.03579.00521-.0044.041-.03468.00781-.00676q.27538-.235.54622-.475l.00391-.0029.043-.038.0026-.00253.04167-.03691.00521-.00464.03906-.035.00781-.00676.03516-.03147.013-.01174.03451-.03069.00976-.00919.03646-.03259.00977-.00889.0358-.03209.01042-.00936.03581-.03233.01041-.00913.03646-.03312.00716-.00649.03972-.036.0039-.004.04037-.03675.00716-.00643.03776-.03461.00977-.00907.03645-.03293.00651-.00632c.10157-.09316.20183-.18576.30209-.27988l.00781-.00712.03906-.03682.00521-.00494.04037-.03772.00455-.00433.04037-.03789.00455-.00444.03581-.034.01042-.00975.03515-.03344.00912-.00871.03581-.0341.00846-.00818.03646-.03475.00911-.00826.03321-.03187.013-.01252.03255-.03145.01107-.01062.0332-.03167.01172-.01163.03385-.03224.01042-.01023.03255-.03181.013-.0125.03255-.03114.01172-.01148.03256-.03154.01106-.01084.03451-.034.00651-.006.03646-.03581.01106-.0111.03451-.03356.0026-.00284c.10026-.09834.19922-.19693.29883-.29625l.00326-.00382.04036-.04.00326-.00322.03515-.03588.00912-.00924.03515-.03516.00782-.00816.0332-.03371.01172-.01167.03125-.03166.01237-.01258.02995-.0308.01432-.01421.0293-.03007.01367-.01426.028-.02857.01758-.0181.026-.02633.01693-.01749.02669-.02759.01628-.01691.028-.02873.01368-.01449.02929-.02979.01563-.01629.02734-.02887.01432-.01478.02865-.03.015-.01535.02865-.0299.01237-.01327.0306-.03156.013-.01421.02995-.03123.00911-.00968.03386-.03529.00651-.00735c.03711-.03889.07226-.07637.10937-.1154l.01042-.01171.02213-.02315.02149-.023.02018-.02176.02279-.02393.02018-.02162.02213-.02417.02084-.02222.02213-.024.01953-.02094.02344-.02491.02018-.022.02214-.0241.01953-.02131.02279-.02424.02083-.02328.02148-.0232.02019-.0222.02148-.0235.02149-.02339.02148-.02354.01953-.02156.02279-.02457.02083-.02281.02214-.02435.01823-.02063.02408-.02653.01823-.02031.026-.02887.01432-.01584.02864-.03182.01433-.01566.02864-.03225.013-.01406.0306-.03436.01107-.01257.03581-.03988.00521-.00631.0345-.03861.00846-.00965c.05665-.06383.11133-.12541.16732-.18958l.00847-.00952.03385-.0384.00781-.00906.03321-.0382.00976-.01108.0319-.037.01042-.01191.0293-.03385.015-.0171.02734-.03182.013-.01466.02735-.03222.01367-.01578.02865-.03353.01237-.01388.02734-.03238.01432-.01667.028-.03276.01237-.014.02929-.03454.01107-.01288.0306-.036.01042-.01263.02864-.03359.013-.01536.0293-.03477.01042-.0127.03125-.03661.00911-.01126.03321-.03943.00716-.0087.03385-.04.00716-.00862.03711-.04449.00261-.00351c.0957-.11481.1901-.22917.2845-.345l.0013-.002.03907-.048.00065-.00028.03971-.049.0013-.00188.03841-.047.00326-.00457.03515-.04312.00782-.01017.0319-.03963.00716-.00871.0332-.04123.00651-.00836.03321-.04175.00586-.00731.03385-.042.00651-.00844.03385-.04258.00456-.00595.03581-.04493.00391-.00477.0358-.04606.00326-.00354.03515-.04488.00456-.00617c.21029-.26762.41862-.53861.6224-.81133l.00065-.001a42.44857,42.44857,0,0,0,8.3737-22.55068,10.66672,10.66672,0,0,0-9.89844-11.33659q-.38087-.0267-.75651-.02655a10.66733,10.66733,0,0,0-10.62956,9.92138,21.38054,21.38054,0,0,1-21.27995,19.79818H106.66667A21.35766,21.35766,0,0,1,85.33333,384v-9.08544a10.66667,10.66667,0,1,0-21.33333,0V384a42.66647,42.66647,0,0,0,42.66667,42.66667Z" style="fill:#163969"/><circle cx="138.66667" cy="96" r="32" style="fill:#002755"/><circle cx="138.66667" cy="224" r="32" style="fill:#002755"/><circle cx="138.66667" cy="352" r="32" style="fill:#002755"/><rect x="277.33333" y="341.33333" width="106.66667" height="42.66667" rx="21.33331" ry="21.33331" style="fill:#dfe5ff"/><path d="M128,128a21.32772,21.32772,0,0,1-21.33333-21.33333,21.33334,21.33334,0,1,0-42.66667,0,21.33334,21.33334,0,0,1-42.66667,0,64,64,0,0,1,128,0A21.32772,21.32772,0,0,1,128,128Z" style="fill:#cdd4df"/><path d="M85.33333,42.66667l-.09179.00007-.02149,0-.08919.00022-.01563.00005-.07812.00031-.02279.00011-.08659.00048-.02213.00015-.07682.00054-.01693.00013-.08789.00077-.02474.00023-.07943.00083-.01172.00013-.08854.001-.02474.00031-.08854.0012-.00781.00012-.08594.00129-.01888.0003-.0905.0015-.01627.0003-.07813.00143-.02018.00037L84,42.68035l-.02018.00043-.07878.00169-.015.00033-.08854.002-.02279.00055-.08789.00217-.00912.00023-.084.00221-.02214.0006-.08984.00248-.013.00039-.08268.00242-.01628.00049-.09049.0028-.01693.00055-.08464.00275-.01041.00034-.0918.00314-.01823.00064-.09114.00327-.00066,0-.09114.0034-.02149.00082-.09049.00352-.00781.00031-.08464.00343-.02018.00083-.08854.00374-.01758.00074L82.4668,42.73l-.01888.00083-.08854.004-.02019.001-.07942.00373-.01433.00066-.08789.00427-.02344.00115-.08593.00429-.01367.00072-.07943.00408-.02149.00115-.08789.00467-.01758.00094-.07812.00428-.01823.001-.08854.005-.01888.0011-.08073.00467-.01237.00073-.08919.00533-.02018.00123-.08464.00515-.00977.00061-.08593.00541-.02344.00146-.08919.00576-.00651.0004-.08529.00563-.01953.0013-.08724.00591-.01888.00131-.07617.00523-.01953.00137-.08659.00613-.02149.00156-.08073.00583-.00976.00073-.08789.00647-.02344.00176-.08659.00654-.01367.00107-.07813.006-.02213.00176-.08659.00681-.01823.00141-.07617.00617-.01823.00147-.08659.00707-.02344.00192-.07617.00636-.01432.00122L79.819,42.902l-.02409.0021-.08333.00724-.00847.00072-.084.0074-.02409.00218-.08659.00773-.01432.00135-.07617.007-.02279.00206-.08594.008-.01953.00186-.07356.007-.02019.00191-.08528.00824-.02214.00213-.07877.00771-.01237.00122-.08464.00839-.02734.00275-.08138.00822-.02149.00224-.069.00706-.026.00269-.08333.00866-.02214.00235-.07161.00756-.02084.00227-.08268.00887-.028.003-.07032.00769-.01692.00187-.084.00931-.026.00286-.08529.00958-.00651.00078-.08138.00922-.02669.00305-.082.00951-.02083.00244-.069.00808-.02539.00295-.082.00978-.02474.003-.06835.00821-.02279.0027-.08268.01008-.02539.00317-.07553.00932-.01237.00151-.08463.01057-.02539.00321-.08268.01045-.02084.00271-.069.00879-.02539.0033-.08333.01086-.02018.00263-.07032.00923-.02343.00307-.08073.01076-.028.00375-.06771.0091-.02083.00283-.07943.01084-.0306.00422-.07747.01063-.01953.00274-.06836.00957-.03255.00458-.07682.0108-.02865.00413-.05925.00839-.0319.00455-.07682.01111-.02995.00436-.06054.00888-.0267.00393-.07747.01142-.0332.00486-.0612.00913-.03906.00589-.0612.00928-.03646.00545-.0625.00959-.04557.007-.05013.0077-.03581.00554-.07357.01143-.03581.00561-.05273.00827-.03385.00532-.07422.01181-.03451.00553-.05729.00919-.03255.0053-.071.01145-.03255.0053-.06836.01122-.0358.00582-.05665.00941-.03645.00611-.07422.01239-.0319.00527-.05144.00875-.0371.00622-.07227.0123-.03516.00608-.05078.0087-.05013.00859-.05729.01-.03906.00678-.05143.009-.05013.00883-.05339.00938-.03776.00675-.05729.01017-.05078.00909-.04948.00894-.03581.00649-.07161.013-.03907.00714-.04557.00838-.03711.00676-.07031.013-.04037.00753-.04882.00907-.04883.00912-.05729.01077-.03776.00725-.05274.01-.05534.01055-.04362.00827-.04166.008-.06641.01285-.04167.008-.04557.00894-.03841.00743-.07031.01388-.03972.00774-.04232.00844-.05924.0117-.04818.00967-.043.0086-.041.00819-.071.01436-.03581.00726-.04623.00936-.04166.00859-.06771.01386-.03581.00738-.04557.00938-.06445.01343-.04428.00914-.041.00863-.05274.01106-.05468.01155-.043.00907-.043.00913-.06055.013-.04362.00934-.04427.00957L71.806,44.105l-.06966.0151-.03776.00814-.04558.01-.04622.01006-.0625.01376-.03646.008-.04362.00962-.06575.01466-.04362.00977-.03711.00827-.07162.01612-.03776.00855-.04492.01022-.03581.00812-.07291.01655-.03646.00831-.043.00992-.04427.01028-.069.01585-.03125.00726-.06576.01534-.04492.0105-.04817.0113-.0293.007-.07748.01829-.0332.008L70.485,44.405l-.03776.00894-.06771.0163-.03776.00905-.04688.01138-.03255.00783-.07747.0189-.0293.00714-.04948.01205-.04362.01066L70,44.52263l-.03776.00933-.06576.01637-.041.01026-.04623.0115-.0319.008-.07942.02-.02995.00745-.04753.012-.0306.00785-.07942.02009-.0306.00785-.04883.01251-.01693.00435-.09375.02425-.026.00675-.0944.02441-.01628.00422-.04687.01228-.03516.00923-.06185.01621-.04622.01234-.043.01122-.03776.0101-.07031.01872-.03451.00917-.04557.0123-.03581.00951-.07357.02-.03059.00818-.04883.01321-.01888.00514-.0892.02439-.02929.008-.08789.02426-.02019.00555-.04947.01369-.02735.00742-.08333.02317-.02735.0077-.04817.01351-.02735.00758-.08333.0235-.02539.00707-.05143.01465-.00456.00125-.10807.03067-.01823.0053c-.056.01588-.11133.03186-.16667.04788l-.01562.00455c-.056.016-.11459.0331-.16992.04929l-.00847.0024-.10482.03075-.01432.00418-.16862.04986-.01432.00427-.16927.05058-.01237.0038-.17188.05187-.00651.00206-.11393.03479-.0026.00076-.05925.01807-.0026.00078c-.15756.0485-.31771.0983-.47526.148l-.00847.00271c-.0983.03116-.19466.06176-.293.09339l-.0013.00042-.17318.05594-.01041.00325-.16992.05548-.01042.00356-.17057.05609-.00782.00266-.10612.03519-.01041.00353c-.05729.019-.11654.039-.17383.05818l-.00326.001-.17643.05983-.00065.0002q-.2373.08074-.474.16315v.00006A64.19491,64.19491,0,0,0,37.75651,63.9013l-.0013.002c-.10807.11987-.21485.2393-.32162.36l-.00846.00947-.11523.13015-.00717.0088c-.03841.04322-.07682.08713-.11458.13046l-.00911.00975c-.02279.026-.04493.05133-.06706.07736l-.00977.01087-.03776.0429-.0039.00492-.07422.085-.00521.006c-.03646.04254-.07552.08726-.112.1299l-.01237.014-.10807.12566-.01563.01822c-.01953.02332-.041.0478-.06054.07115l-.01172.01389-.03321.03854-.01692.01982-.05729.06728-.015.01773-.03255.03849-.01758.02043c-.01693.02052-.03581.04269-.05338.06323L36.416,65.44l-.03125.03648-.02539.03059-.04362.05164-.02344.028-.041.049-.028.03341-.02865.03388-.026.03175-.03646.04351-.0306.03638-.02734.03306-.02669.03208-.04167.05081-.02344.02815-.0293.03579-.03385.04072-.0332.04017-.026.03188-.02409.02969-.04427.05349-.02409.0296-.028.03459-.03385.04136-.03385.04153-.02344.02875-.03581.04417-.02409.0297-.03841.0474-.01823.02253-.04622.05725-.02019.025-.03515.04343-.01758.02256-.04753.05922-.01757.02186-.03842.04815-.01367.01706-.04817.0605-.01823.02221-.043.05421-.01107.01406-.04622.05855-.01823.02277c-.01693.022-.03125.04008-.04883.0621l-.00781.01-.04493.05651-.01432.01876-.05078.06407-.00911.012-.04688.06006-.00911.01167c-.01758.0221-.03581.04532-.05274.06745l-.00911.01137-.05078.06575L34.763,67.481c-.01888.02374-.03516.04473-.05338.06849l-.00977.01319c-.03711.04753-.07161.0924-.10807.14l-.00847.01023-.05338.07-.00456.00581-.05273.06923-.00391.00443-.05534.07242-.00456.00673-.112.14675-.00391.00517c-.03646.04793-.07487.09916-.11133.14718l-.00456.00632c-.0358.048-.07356.09785-.10937.146l-.00651.00822c-.056.07543-.11328.15242-.16992.2281v.00024q-1.26759,1.71008-2.42253,3.50507A10.66666,10.66666,0,0,0,49.42253,83.65718,42.57888,42.57888,0,0,1,85.33333,64a10.66667,10.66667,0,1,0,0-21.33333Z" style="fill:#eff2ff"/><path d="M128,256a21.32772,21.32772,0,0,1-21.33333-21.33333,21.33334,21.33334,0,1,0-42.66667,0,21.33334,21.33334,0,0,1-42.66667,0,64,64,0,0,1,128,0A21.32772,21.32772,0,0,1,128,256Z" style="fill:#cdd4df"/><path d="M128,384a21.32772,21.32772,0,0,1-21.33333-21.33333,21.33333,21.33333,0,1,0-42.66667,0,21.33334,21.33334,0,0,1-42.66667,0,64,64,0,0,1,128,0A21.32772,21.32772,0,0,1,128,384Z" style="fill:#cdd4df"/><path d="M85.33333,192a42.7149,42.7149,0,0,0-42.66666,42.66667v10.66666a10.66667,10.66667,0,1,0,21.33333,0V234.66667h0a21.33337,21.33337,0,0,1,21.33333-21.33334h0l.05144.00006.00911,0,.04883.00021.01041.00006.04818.0003.00261,0,.05013.00045.01106.00012.04883.00057.00781.00011.04623.00067.00716.0001.04948.00083.01042.00019.04882.00095.00847.00019.04557.001.00651.00017.05013.00122.00977.00026.05013.00136.00325.00009.04818.00144.00911.0003.04883.00157.00977.00035.05013.00175.0026.0001.04818.00181.01042.00041.04752.00191.01172.00051.04492.00193.00456.0002.05013.00228.00911.00043.04948.00238.00717.00035.04817.00246.00456.00022.05013.00271.00911.00044.04948.00281.00586.00035.04753.00274.00651.00041.04883.003.01041.00069.04948.00312.00456.00034.04622.003.00977.00065.04818.00334.00911.00067.04948.00356.00326.00021.04882.00362.00782.00057.04882.00376.00977.0008.04492.00354.00586.0005.04753.00387.01237.001.04687.004.00847.00078.04622.004.00521.0004.04883.0044.00976.00093.04818.00442.00846.00085.04492.00427.00652.00059.04947.00483.00847.00085.10091.01025.00781.00086.04883.00511.00846.00091.05013.00543.00131.00017.04948.00547.00781.00085.04883.00556.00846.001.099.01164.00976.00116.04753.00578.00911.00114.04427.00551.00651.00076.04883.00624.00782.001.04882.0063.00717.001.04557.00594.00651.00084.04752.00647.00977.00134.04883.00667.0039.00051.04753.00665.00651.001.04818.00682.00976.00142.04883.007.00195.0003.04818.00717.00716.001.04883.00739.00716.00106.10026.01546.00782.00128.04882.00767.00651.00108.04623.00745.00456.00075.04817.00783.00912.00159.04687.00775.00977.00165.04362.00738.00586.00092.04817.0083.00847.0015.04948.00859.0013.00018.04948.00883.00521.00086.04948.00889.00651.0012.05013.00913v.00006l.05013.00924.00586.00112.04817.00907.00782.00147.09961.019.00585.00116.05013.00973.00391.00081.10156.02024.00521.00118.05078.01022.002.00046.05013.01036.0026.00051.04818.01005.00911.00189.04753.01017.0039.00072.04623.01005.00651.0013.04818.01048.00651.00148.04948.01074.002.00049.04818.0107.0052.00118.04818.01091.00716.00156.09766.0224.00716.00171.04818.01115.00586.00137.04817.01137.00131.00032.04817.0115.00782.00187.04687.01133.00716.00169.04688.01146.00195.00046.04753.01184.00846.00206.04818.012.002.00051.04622.01176.00717.00171.04687.01192.00716.00193.04818.01235.0026.00072.04623.012.00651.00181.04687.01231.00781.002.097.026.00456.00129.04883.01316.0052.00138.04818.01319.0013.00034.04753.01333.00716.00183.04818.01351.0026.00077.09831.028.00716.00195.04818.01383.002.00061.04753.01378.00455.0013.04623.01367.00846.0024.04623.01382.00325.00093.04557.01359.00586.00177.04623.014.00716.00214.0957.02929.00586.00181.04818.015.0026.00079.09831.031.00521.0015.04687.015.00651.00205.09571.03091.0052.0017.04818.01569.002.00069.04688.01544.00391.00129.04622.01538.00716.0025.04623.01554.00325.001.04557.01542.00521.00173.04557.0155.00782.00285.09375.03229.00521.00183.04687.01638.00456.00163.0957.03389.00456.00171.04752.01682.00391.00155.0957.03463.00456.00167.04753.01751.00195.00063.04883.018.00065.00028.04753.01787.00455.0016.04753.01789.0013.00034.097.037.00455.00179c.0319.01213.06315.02407.0944.03634l.00521.002.04753.01855.00065.00031c.0332.01286.0651.02566.09831.03868l.0013.00067.04883.0193.0013.00059.09635.03895.00326.00124c.04883.01987.097.03965.14583.05989l.002.00078c.08138.03373.16406.06866.24479.10337l.00065.00012.04687.02047.00391.00148.09505.04141.0013.00056.04753.02088.002.001.0944.04191.00326.00136c.04752.02155.0957.04315.14323.065l.0013.00049c.04818.02187.09635.04433.14453.06655v.00024l.0957.04484.00066.00037c.06445.03023.1276.06045.1914.09129l.002.00093.0931.0456.002.00077c.04687.02313.09505.04684.14192.07031v.00015c.04688.02347.0944.04716.14063.071l.00325.00151.0931.04758v.00008l.04623.024.00195.00081.09245.04838.00065.00045.04622.02436.00131.00052c.02929.01571.06119.03239.09049.04824l.00391.00208.04492.02411.00065.00022.0918.0498.002.001c.04622.02507.0918.05007.13737.07544l.00195.00116.0905.05029.00195.0011.04492.02523.0013.00075c.04558.02572.0918.05182.13672.07786l.0013.00061c.02995.017.0599.03441.0892.05158l.00325.00175.04427.02576.00065.00028.0892.05267.0026.00127.04362.02608.00195.00095.04428.02639v0l.04362.02615.0039.00211c.04427.02657.08854.05357.13281.08045l.002.00142.04362.02671.00065.00035.043.02649.0026.00156.04232.02625.0039.00248.08464.05263.00456.00312.04166.02622.00326.00169.04232.02712.00065.00012.04232.02688.0039.00268.04167.02678.0026.00144.08529.055.00391.00254.08463.05542.0026.0015.04232.02788.002.00144.08658.05723.00066.00045.04166.02793.00456.00285.084.05683.00131.00087.043.029.00066.00063c.02864.01919.05729.0388.08528.05811l.00261.00195.04166.02863.002.00132.04166.02915.00065,0,.03907.02763.00716.005.03971.02757.0013.00079.04037.0284.0026.002.04037.02875.00325.0023c.02735.01935.05469.03868.08138.05815l.00456.003.03906.0282.00521.0036.07878.057.00586.00446.03776.02769.00586.00435.03776.02743.002.00138.03841.02863.00586.00433.03776.02779.00586.00472.03841.02828v.00017l.03841.02864.00716.00566.03646.02746.00651.00482.0319.024.00847.00665.03515.02674.00847.00647.03646.02761.00455.00362.03321.02567.00716.0056.0345.02667.01107.0082.03385.02629.00521.00433.03255.02541.00847.00673.03581.02777.00716.00574.03255.0257.00651.0051.03385.02662.00912.00728.03385.02722.00912.007.03125.02517.00521.00445.03515.02812.00912.00736.0345.02759.00781.00635.0293.02413.00781.00639.03451.02795.00846.0072.03451.02824.00586.005.0332.02693.00521.00475.03515.029.00847.00669.03515.02971.00066.00061.03515.02909.00781.00673.03451.02914.00651.00531.03516.02978.002.00145.03516.03025.00781.00627.03385.029.00847.00732.03059.02613.00456.00421.03451.02964.00781.00665.0345.02987.00586.00549.0293.0256.00912.00754.03255.02879.00846.00747.0332.02909.00782.00668.02734.02469.00912.00759.03124.02794.01172.01023.03125.02824.00586.005.02865.02609.00976.00868.03191.02885.00846.00731.03255.0296.00261.0024.0319.02944.00976.00846.03125.02877.00912.00863.028.02565.00651.00619.03125.02834.01107.01074.03125.02867.00716.00689.028.026.00781.00731.03125.02938.00911.00891.03125.029.00977.00925.02474.02352.00911.009.03125.0295.00912.009.02995.02844.00976.00934.02344.02242.01172.01162.02929.0282.01042.00994.02669.02625.00977.00924.02734.02661.00977.00962.0293.02887.01041.01038.02735.02638.0052.00509.0306.03031.00977.01018.02995.0298.00781.00794.026.02573.00912.00895.02864.02875.01107.01144.02864.02887.01042.01035.02214.02252.01041.01087.028.02818.01237.01261.02474.02572.01367.01369.01953.02051.01367.01393.026.027.01368.0143.01692.01762.02279.0234.01628.01751.01367.014.02539.027.015.0153.01628.01768.02083.02173.01758.01878.01562.01613.02344.02562.015.01536.01692.01821.01693.01861.02083.0221.01433.01589.01757.01885.02149.02338.015.01624.01953.02114.01954.02132.01432.0157.02213.0243.015.01637.01627.01785.01888.02089.01954.02155.015.01686.01562.01734.02279.02579.01432.01555.015.01741.02278.025.01758.02012.00912.01062.02864.03255.01042.01141.01693.0197.015.01682.02344.02684.01172.013.02539.02984.01367.01526.015.01789.01433.01627.02474.02908.00976.01106.0319.03726.00521.00647.01888.02172.00912.0105.02734.03286.01107.013.0319.03727.00521.0067.01888.02193.00586.00769c.01106.013.02213.0258.03255.03886l.00586.0072c.01888.02232.03776.045.056.0674l.00911.01081.0319.03877.00456.00535.05794.07078.00391.00511.0345.04285.00456.00512.01823.02293.00391.00483.0345.04329.00456.00535c.0319.04024.06445.08087.09635.12136l.002.00236c.01953.02455.03906.04966.05794.0743l.00065.00085c.013.016.02539.03235.03776.04838l.00195.00255a21.27216,21.27216,0,0,1,3.60352,7.0276,10.66656,10.66656,0,1,0,20.46289-6.03094A42.90527,42.90527,0,0,0,85.33333,192Z" style="fill:#7d8fac"/><circle cx="53.33333" cy="245.33333" r="10.66667" style="fill:#435e88"/><path d="M85.33333,64a42.7149,42.7149,0,0,0-42.66666,42.66667v10.66666a10.66667,10.66667,0,1,0,21.33333,0V106.66667h0A21.33337,21.33337,0,0,1,85.33333,85.33333h0l.05144.00006.00911,0,.04883.00021.01041.00006.04818.0003.00261,0,.05013.00045.01106.00012.04883.00057.00781.00011.04623.00067.00716.0001.04948.00083.01042.00019.04882.001.00847.00019.04557.001.00651.00017.05013.00122.00977.00026.05013.00136.00325.00009.04818.00144.00911.0003.04883.00157.00977.00035.05013.00175.0026.0001.04818.00181.01042.00041.04752.00191.01172.00051.04492.00193.00456.0002.05013.00228.00911.00043.04948.00238.00717.00035.04817.00246.00456.00022.05013.00271.00911.00044.04948.00281.00586.00035.04753.00274.00651.00041.04883.003.01041.00069.04948.00312.00456.00034.04622.003.00977.00065.04818.00334.00911.00067.04948.00356.00326.00021.04882.00362.00782.00057.04882.00376.00977.0008.04492.00354.00586.0005.04753.00387.01237.001.04687.004.00847.00078.04622.004.00521.0004.04883.0044.00976.00093.04818.00442.00846.00085.04492.00427.00652.00059.04947.00483.00847.00085.10091.01025.00781.00086.04883.00511.00846.00091.05013.00543.00131.00017.04948.00547.00781.00085.04883.00556.00846.001.099.01164.00976.00116.04753.00578.00911.00114.04427.00551.00651.00076.04883.00624.00782.001.04882.0063.00717.001.04557.00594.00651.00084.04752.00647.00977.00134.04883.00667.0039.00051.04753.00665.00651.001.04818.00682.00976.00142.04883.007.00195.0003.04818.00717.00716.001.04883.00739.00716.00106.10026.01546.00782.00128.04882.00767.00651.00108.04623.00745.00456.00075.04817.00783.00912.00159.04687.00775.00977.00165.04362.00738.00586.00092.04817.0083.00847.0015.04948.00859.0013.00018.04948.00883.00521.00086.04948.00889.00651.0012.05013.00913v.00006l.05013.00924.00586.00112.04817.00907.00782.00147.09961.019.00585.00116.05013.00973.00391.00081.10156.02024.00521.00118.05078.01022.002.00046.05013.01036.0026.00051.04818.01.00911.00189.04753.01017.0039.00072.04623.01.00651.0013.04818.01048.00651.00148.04948.01074.002.00049.04818.0107.0052.00118.04818.01091.00716.00156.09766.0224.00716.00171.04818.01115.00586.00137.04817.01137.00131.00032.04817.0115.00782.00187.04687.01133.00716.00169.04688.01146.00195.00046.04753.01184.00846.00206.04818.012.002.00051.04622.01176.00717.00171.04687.01192.00716.00193.04818.01235.0026.00072.04623.012.00651.00181.04687.01231.00781.002.097.026.00456.00129.04883.01316.0052.00138.04818.01319.0013.00034.04753.01333.00716.00183.04818.01351.0026.00077.09831.028.00716.00195.04818.01383.002.00061.04753.01378.00455.0013.04623.01367.00846.0024.04623.01382.00325.00093.04557.01359.00586.00177.04623.014.00716.00214.0957.02929.00586.00181.04818.015.0026.00079.09831.031.00521.0015.04687.015.00651.002.09571.03091.0052.0017.04818.01569.002.00069.04688.01544.00391.00129.04622.01538.00716.0025.04623.01554.00325.001.04557.01542.00521.00173.04557.0155.00782.00285.09375.03229.00521.00183.04687.01638.00456.00163.0957.03389.00456.00171.04752.01682.00391.00155.0957.03463.00456.00167.04753.01751.00195.00063.04883.018.00065.00028.04753.01787.00455.0016.04753.01789.0013.00034.097.037.00455.00179c.0319.01213.06315.02407.0944.03634l.00521.002.04753.01855.00065.00031c.0332.01286.0651.02566.09831.03868l.0013.00067.04883.0193.0013.00059.09635.03895.00326.00124c.04883.01987.097.03965.14583.05989l.002.00078c.08138.03373.16406.06866.24479.10337l.00065.00012.04687.02047.00391.00148.09505.04141.0013.00056.04753.02088.002.001.0944.04191.00326.00136c.04752.02155.0957.04315.14323.065l.0013.00049c.04818.02187.09635.04433.14453.06655v.00024l.0957.04484.00066.00037c.06445.03023.1276.06045.1914.09129l.002.00093.0931.0456.002.00077c.04687.02313.09505.04684.14192.07031v.00015c.04688.02347.0944.04716.14063.071l.00325.00151.0931.04758V87.693l.04623.024.00195.00081.09245.04838.00065.00045.04622.02436.00131.00052c.02929.01571.06119.03239.09049.04824l.00391.00208.04492.02411.00065.00022.0918.0498.002.001c.04622.02507.0918.05007.13737.07544l.00195.00116.0905.05029.00195.0011.04492.02523.0013.00075c.04558.02572.0918.05182.13672.07786l.0013.00061c.02995.017.0599.03441.0892.05158l.00325.00175.04427.02576.00065.00028.0892.05267.0026.00127.04362.02608.00195.001.04428.02639v0l.04362.02615.0039.00211c.04427.02657.08854.05357.13281.08045l.002.00142.04362.02671.00065.00035.043.02649.0026.00156.04232.02625.0039.00248.08464.05263.00456.00312.04166.02622.00326.00169.04232.02712.00065.00012.04232.02688.0039.00268.04167.02678.0026.00144.08529.055.00391.00254.08463.05542.0026.0015.04232.02788.002.00144.08658.05723.00066.00045.04166.02793.00456.00285.084.05683.00131.00087.043.029.00066.00063c.02864.01919.05729.0388.08528.05811l.00261.00195.04166.02863.002.00132.04166.02915.00065,0,.03907.02763.00716.005.03971.02757.0013.00079.04037.0284.0026.002.04037.02875.00325.0023c.02735.01935.05469.03868.08138.05815l.00456.003.03906.0282.00521.0036.07878.057.00586.00446.03776.02769.00586.00435.03776.02743.002.00138.03841.02863.00586.00433.03776.02779.00586.00472.03841.02828v.00017l.03841.02864.00716.00566.03646.02746.00651.00482.0319.024.00847.00665.03515.02674.00847.00647.03646.02761.00455.00362.03321.02567.00716.0056.0345.02667.01107.0082.03385.02629.00521.00433.03255.02541.00847.00673.03581.02777.00716.00574.03255.0257.00651.0051.03385.02662.00912.00728.03385.02722.00912.007.03125.02517.00521.00445.03515.02812.00912.00736.0345.02759.00781.00635.0293.02413.00781.00639.03451.028.00846.0072.03451.02824.00586.005.0332.02693.00521.00475.03515.029.00847.00669.03515.02971.00066.00061.03515.02909.00781.00673.03451.02914.00651.00531.03516.02978.002.00145.03516.03025.00781.00627.03385.029.00847.00732.03059.02613.00456.00421.03451.02964.00781.00665.0345.02987.00586.00549.0293.0256.00912.00754.03255.02879.00846.00747.0332.02909.00782.00668.02734.02469.00912.00759.03124.02794.01172.01023.03125.02824.00586.005.02865.02609.00976.00868.03191.02885.00846.00731.03255.0296.00261.0024.0319.02944.00976.00846.03125.02877.00912.00863.028.02565.00651.00619.03125.02834.01107.01074.03125.02867.00716.00689.028.026.00781.00731.03125.02938.00911.00891.03125.029.00977.00925.02474.02352.00911.009.03125.0295.00912.009.02995.02844.00976.00934.02344.02242.01172.01162.02929.0282.01042.00994.02669.02625.00977.00924.02734.02661.00977.00962.0293.02887.01041.01038.02735.02638.0052.00509.0306.03031.00977.01018.02995.0298.00781.00794.026.02573.00912.00895.02864.02875.01107.01144.02864.02887.01042.01035.02214.02252.01041.01087.028.02818.01237.01261.02474.02572.01367.01369.01953.02051.01367.01393.026.027.01368.0143.01692.01762.02279.0234.01628.01751.01367.014.02539.027.015.0153.01628.01768.02083.02173.01758.01878.01562.01613.02344.02562.015.01536.01692.01821.01693.01861.02083.0221.01433.01589.01757.01885.02149.02338.015.01624.01953.02114.01954.02132.01432.0157.02213.0243.015.01637.01627.01785.01888.02089.01954.02155.015.01686.01562.01734.02279.02579.01432.01555.015.01741.02278.025.01758.02012.00912.01062.02864.03255.01042.01141.01693.0197.015.01682.02344.02684.01172.013.02539.02984.01367.01526.015.01789.01433.01627.02474.02908.00976.01106.0319.03726.00521.00647.01888.02172.00912.0105.02734.03286.01107.013.0319.03727.00521.0067.01888.02193.00586.00769c.01106.013.02213.0258.03255.03886l.00586.0072c.01888.02232.03776.045.056.0674l.00911.01081.0319.03877.00456.00535.05794.07078.00391.00511.0345.04285.00456.00512.01823.02293.00391.00483.0345.04329.00456.00535c.0319.04024.06445.08087.09635.12136l.002.00236c.01953.02455.03906.04966.05794.0743l.00065.00085c.013.016.02539.03235.03776.04838l.00195.00255a21.27216,21.27216,0,0,1,3.60352,7.0276,10.66656,10.66656,0,1,0,20.46289-6.03094A42.90527,42.90527,0,0,0,85.33333,64Z" style="fill:#7d8fac"/><path d="M85.33333,320a42.7149,42.7149,0,0,0-42.66666,42.66667v10.66666a10.66667,10.66667,0,1,0,21.33333,0V362.66667h0a21.33337,21.33337,0,0,1,21.33333-21.33334h0l.05144.00006.00911,0,.04883.00021.01041.00006.04818.0003.00261,0,.05013.00045.01106.00012.04883.00057.00781.00011.04623.00067.00716.0001.04948.00083.01042.00019.04882.00095.00847.00019.04557.001.00651.00017.05013.00122.00977.00026.05013.00136.00325.00009.04818.00144.00911.0003.04883.00157.00977.00035.05013.00175.0026.0001.04818.00181.01042.00041.04752.00191.01172.00051.04492.00193.00456.0002.05013.00228.00911.00043.04948.00238.00717.00035.04817.00246.00456.00022.05013.00271.00911.00044.04948.00281.00586.00035.04753.00274.00651.00041.04883.003.01041.00069.04948.00312.00456.00034.04622.003.00977.00065.04818.00334.00911.00067.04948.00356.00326.00021.04882.00362.00782.00057.04882.00376.00977.0008.04492.00354.00586.0005.04753.00387.01237.001.04687.004.00847.00078.04622.004.00521.0004.04883.0044.00976.00093.04818.00442.00846.00085.04492.00427.00652.00059.04947.00483.00847.00085.10091.01025.00781.00086.04883.00511.00846.00091.05013.00543.00131.00017.04948.00547.00781.00085.04883.00556.00846.001.099.01164.00976.00116.04753.00578.00911.00114.04427.00551.00651.00076.04883.00624.00782.001.04882.0063.00717.001.04557.00594.00651.00084.04752.00647.00977.00134.04883.00667.0039.00051.04753.00665.00651.001.04818.00682.00976.00142.04883.007.00195.0003.04818.00717.00716.001.04883.00739.00716.00106.10026.01546.00782.00128.04882.00767.00651.00108.04623.00745.00456.00075.04817.00783.00912.00159.04687.00775.00977.00165.04362.00738.00586.00092.04817.0083.00847.0015.04948.00859.0013.00018.04948.00883.00521.00086.04948.00889.00651.0012.05013.00913v.00006l.05013.00924.00586.00112.04817.00907.00782.00147.09961.019.00585.00116.05013.00973.00391.00081.10156.02024.00521.00118.05078.01022.002.00046.05013.01036.0026.00051.04818.01.00911.00189.04753.01017.0039.00072.04623.01.00651.0013.04818.01048.00651.00148.04948.01074.002.00049.04818.0107.0052.00118.04818.01091.00716.00156.09766.0224.00716.00171.04818.01115.00586.00137.04817.01137.00131.00032.04817.0115.00782.00187.04687.01133.00716.00169.04688.01146.00195.00046.04753.01184.00846.00206.04818.012.002.00051.04622.01176.00717.00171.04687.01192.00716.00193.04818.01235.0026.00072.04623.012.00651.00181.04687.01231.00781.002.097.026.00456.00129.04883.01316.0052.00138.04818.01319.0013.00034.04753.01333.00716.00183.04818.01351.0026.00077.09831.028.00716.002.04818.01383.002.00061.04753.01378.00455.0013.04623.01367.00846.0024.04623.01382.00325.00093.04557.01359.00586.00177.04623.014.00716.00214.0957.02929.00586.00181.04818.015.0026.00079.09831.03095.00521.0015.04687.015.00651.002.09571.03091.0052.0017.04818.01569.002.00069.04688.01544.00391.00129.04622.01538.00716.0025.04623.01554.00325.001.04557.01542.00521.00173.04557.0155.00782.00285.09375.03229.00521.00183.04687.01638.00456.00163.0957.03389.00456.00171.04752.01682.00391.00155.0957.03463.00456.00167.04753.01751.00195.00063.04883.018.00065.00028.04753.01787.00455.0016.04753.01789.0013.00034.097.037.00455.00179c.0319.01213.06315.02407.0944.03634l.00521.002.04753.01855.00065.00031c.0332.01286.0651.02566.09831.03868l.0013.00067.04883.0193.0013.00059.09635.03895.00326.00124c.04883.01987.097.03965.14583.05989l.002.00078c.08138.03373.16406.06866.24479.10337l.00065.00012.04687.02047.00391.00148.09505.04141.0013.00056.04753.02088.002.001.0944.04191.00326.00136c.04752.02155.0957.04315.14323.065l.0013.00049c.04818.02187.09635.04433.14453.06655v.00024l.0957.04484.00066.00037c.06445.03023.1276.06045.1914.09129l.002.00093.0931.0456.002.00077c.04687.02313.09505.04684.14192.07031v.00015c.04688.02347.0944.04716.14063.071l.00325.00151.0931.04758v.00008l.04623.024.00195.00081.09245.04838.00065.00045.04622.02436.00131.00052c.02929.01571.06119.03239.09049.04824l.00391.00208.04492.02411.00065.00022.0918.0498.002.001c.04622.02507.0918.05007.13737.07544l.00195.00116.0905.05029.00195.0011.04492.02523.0013.00075c.04558.02572.0918.05182.13672.07786l.0013.00061c.02995.017.0599.03441.0892.05158l.00325.00175.04427.02576.00065.00028.0892.05267.0026.00127.04362.02608.00195.001.04428.02639v0l.04362.02615.0039.00211c.04427.02657.08854.05357.13281.08045l.002.00142.04362.02671.00065.00035.043.02649.0026.00156.04232.02625.0039.00248.08464.05263.00456.00312.04166.02622.00326.00169.04232.02712.00065.00012.04232.02688.0039.00268.04167.02678.0026.00144.08529.055.00391.00254.08463.05542.0026.0015.04232.02788.002.00144.08658.05723.00066.00045.04166.02793.00456.00285.084.05683.00131.00087.043.029.00066.00063c.02864.01919.05729.0388.08528.05811l.00261.002.04166.02863.002.00132.04166.02915.00065,0,.03907.02763.00716.005.03971.02757.0013.00079.04037.0284.0026.002.04037.02875.00325.0023c.02735.01935.05469.03868.08138.05815l.00456.003.03906.0282.00521.0036.07878.057.00586.00446.03776.02769.00586.00435.03776.02743.002.00138.03841.02863.00586.00433.03776.02779.00586.00472.03841.02828v.00017l.03841.02864.00716.00566.03646.02746.00651.00482.0319.024.00847.00665.03515.02674.00847.00647.03646.02761.00455.00362.03321.02567.00716.0056.0345.02667.01107.0082.03385.02629.00521.00433.03255.02541.00847.00673.03581.02777.00716.00574.03255.0257.00651.0051.03385.02662.00912.00728.03385.02722.00912.007.03125.02517.00521.00445.03515.02812.00912.00736.0345.02759.00781.00635.0293.02413.00781.00639.03451.02795.00846.0072.03451.02824.00586.005.0332.02693.00521.00475.03515.029.00847.00669.03515.02971.00066.00061.03515.02909.00781.00673.03451.02914.00651.00531.03516.02978.002.00145.03516.03025.00781.00627.03385.029.00847.00732.03059.02613.00456.00421.03451.02964.00781.00665.0345.02987.00586.00549.0293.0256.00912.00754.03255.02879.00846.00747.0332.02909.00782.00668.02734.02469.00912.00759.03124.02794.01172.01023.03125.02824.00586.005.02865.02609.00976.00868.03191.02885.00846.00731.03255.0296.00261.0024.0319.02944.00976.00846.03125.02877.00912.00863.028.02565.00651.00619.03125.02834.01107.01074.03125.02867.00716.00689.028.026.00781.00731.03125.02938.00911.00891.03125.029.00977.00925.02474.02352.00911.009.03125.0295.00912.009.02995.02844.00976.00934.02344.02242.01172.01162.02929.0282.01042.00994.02669.02625.00977.00924.02734.02661.00977.00962.0293.02887.01041.01038.02735.02638.0052.00509.0306.03031.00977.01018.02995.0298.00781.00794.026.02573.00912.009.02864.02875.01107.01144.02864.02887.01042.01035.02214.02252.01041.01087.028.02818.01237.01261.02474.02572.01367.01369.01953.02051.01367.01393.026.027.01368.0143.01692.01762.02279.0234.01628.01751.01367.014.02539.027.015.0153.01628.01768.02083.02173.01758.01878.01562.01613.02344.02562.015.01536.01692.01821.01693.01861.02083.0221.01433.01589.01757.01885.02149.02338.015.01624.01953.02114.01954.02132.01432.0157.02213.0243.015.01637.01627.01785.01888.02089.01954.02155.015.01686.01562.01734.02279.02579.01432.01555.015.01741.02278.025.01758.02012.00912.01062.02864.03255.01042.01141.01693.0197.015.01682.02344.02684.01172.013.02539.02984.01367.01526.015.01789.01433.01627.02474.02908.00976.01106.0319.03726.00521.00647.01888.02172.00912.0105.02734.03286.01107.013.0319.03727.00521.0067.01888.02193.00586.00769c.01106.013.02213.0258.03255.03886l.00586.0072c.01888.02232.03776.045.056.0674l.00911.01081.0319.03877.00456.00535.05794.07078.00391.00511.0345.04285.00456.00512.01823.02293.00391.00483.0345.04329.00456.00535c.0319.04024.06445.08087.09635.12136l.002.00236c.01953.02455.03906.04966.05794.0743l.00065.00085c.013.016.02539.03235.03776.04838l.00195.00255a21.27216,21.27216,0,0,1,3.60352,7.0276,10.66656,10.66656,0,1,0,20.46289-6.03094A42.90527,42.90527,0,0,0,85.33333,320Z" style="fill:#7d8fac"/><circle cx="53.33333" cy="373.33333" r="10.66667" style="fill:#435e88"/><rect x="42.66667" y="106.66667" width="21.33333" height="21.33333" rx="10.66666" ry="10.66666" style="fill:#435e88"/><path d="M85.33333,170.66667l-.09179.00007-.02149,0-.08919.00022-.01563,0-.07812.00031-.02279.00011-.08659.00048-.02213.00015-.07682.00054-.01693.00013-.08789.00077-.02474.00023-.07943.00083-.01172.00013-.08854.00105-.02474.00031-.08854.0012-.00781.00012-.08594.00129-.01888.0003-.0905.0015-.01627.0003-.07813.00143-.02018.00037L84,170.68035l-.02018.00043-.07878.00169-.015.00033-.08854.002-.02279.00055-.08789.00217-.00912.00023-.084.00221-.02214.0006-.08984.00248-.013.00039-.08268.00242-.01628.00049-.09049.0028-.01693.00055-.08464.00275-.01041.00034-.0918.00314-.01823.00064-.09114.00327-.00066,0-.09114.0034-.02149.00082-.09049.00352-.00781.00031-.08464.00343-.02018.00083-.08854.00374-.01758.00074-.07682.00338-.01888.00083-.08854.004-.02019.00095-.07942.00373-.01433.00066-.08789.00427-.02344.00115-.08593.00429-.01367.00072-.07943.00408-.02149.00115-.08789.00467-.01758.00094-.07812.00428-.01823.001-.08854.005-.01888.0011-.08073.00467-.01237.00073-.08919.00533-.02018.00123-.08464.00515-.00977.00061-.08593.00541-.02344.00146-.08919.00576-.00651.0004-.08529.00563-.01953.0013-.08724.00591-.01888.00131-.07617.00523-.01953.00137-.08659.00613-.02149.00156-.08073.00583-.00976.00073-.08789.00647-.02344.00176-.08659.00654-.01367.00107-.07813.006-.02213.00176-.08659.00681-.01823.00141-.07617.00617-.01823.00147-.08659.00707-.02344.00192-.07617.00636-.01432.00122-.08659.00735-.02409.0021-.08333.00724-.00847.00072-.084.0074-.02409.00218-.08659.00773-.01432.00135-.07617.007-.02279.00206-.08594.008-.01953.00186-.07356.007-.02019.00191-.08528.00824-.02214.00213-.07877.00771-.01237.00122-.08464.00839-.02734.00275-.08138.00822-.02149.00224-.069.00706-.026.00269-.08333.00866-.02214.00235-.07161.00756-.02084.00227-.08268.00887-.028.003-.07032.00769-.01692.00187-.084.00931-.026.00286-.08529.00958-.00651.00078-.08138.00922-.02669.00305-.082.00951-.02083.00244-.069.00808-.02539.00295-.082.00978-.02474.003-.06835.00821-.02279.0027-.08268.01008-.02539.00317-.07553.00932-.01237.00151-.08463.01057-.02539.00321-.08268.01045-.02084.00271-.069.00879-.02539.0033-.08333.01086-.02018.00263-.07032.00923-.02343.00307-.08073.01076-.028.00375-.06771.0091-.02083.00283-.07943.01084-.0306.00422-.07747.01063-.01953.00274-.06836.00957-.03255.00458-.07682.0108-.02865.00413-.05925.00839-.0319.00455-.07682.01111-.02995.00436-.06054.00888-.0267.00393-.07747.01142-.0332.00486-.0612.00913-.03906.00589-.0612.00928-.03646.00545-.0625.00959-.04557.007-.05013.0077-.03581.00554-.07357.01143-.03581.00561-.05273.00827-.03385.00532-.07422.01181-.03451.00553-.05729.00919-.03255.0053-.071.01145-.03255.0053-.06836.01122-.0358.00582-.05665.00941-.03645.00611-.07422.01239-.0319.00527-.05144.00875-.0371.00622-.07227.0123-.03516.00608-.05078.0087-.05013.00859-.05729.01-.03906.00678-.05143.009-.05013.00883-.05339.00938-.03776.00675-.05729.01017-.05078.00909-.04948.00894-.03581.00649-.07161.013-.03907.00714-.04557.00838-.03711.00676-.07031.013-.04037.00753-.04882.00907-.04883.00912-.05729.01077-.03776.00725-.05274.01-.05534.01055-.04362.00827-.04166.008-.06641.01285-.04167.008-.04557.00894-.03841.00743-.07031.01388-.03972.00774-.04232.00844-.05924.0117-.04818.00967-.043.0086-.041.00819-.071.01436-.03581.00726-.04623.00936-.04166.00859-.06771.01386-.03581.00738-.04557.00938-.06445.01343-.04428.00914-.041.00863-.05274.01106-.05468.01155-.043.00907-.043.00913-.06055.013-.04362.00934-.04427.00957-.03906.00841-.06966.0151-.03776.00814-.04558.01-.04622.01006-.0625.01376-.03646.008-.04362.00962-.06575.01466-.04362.00977-.03711.00827-.07162.01612-.03776.00855-.04492.01022-.03581.00812-.07291.01655-.03646.00831-.043.00992-.04427.01028-.069.01585-.03125.00726-.06576.01534-.04492.0105-.04817.0113-.0293.007-.07748.01829-.0332.008-.04687.01109-.03776.00894-.06771.0163-.03776.00905-.04688.01138-.03255.00783-.07747.0189-.0293.00714-.04948.01205-.04362.01066L70,172.52263l-.03776.00933-.06576.01637-.041.01026-.04623.0115-.0319.008-.07942.02-.02995.00745-.04753.012-.0306.00785-.07942.02009-.0306.00785-.04883.01251-.01693.00435-.09375.02425-.026.00675-.0944.02441-.01628.00422-.04687.01228-.03516.00923-.06185.01621-.04622.01234-.043.01122-.03776.0101-.07031.01872-.03451.00917-.04557.0123-.03581.00951-.07357.01995-.03059.00818-.04883.01321-.01888.00514-.0892.02439-.02929.00795-.08789.02426-.02019.00555-.04947.01369-.02735.00742-.08333.02317-.02735.0077-.04817.01351-.02735.00758-.08333.0235-.02539.00707-.05143.01465-.00456.00125-.10807.03067-.01823.0053c-.056.01588-.11133.03186-.16667.04788l-.01562.00455c-.056.016-.11459.0331-.16992.04929l-.00847.0024-.10482.03075-.01432.00418-.16862.04986-.01432.00427-.16927.05058-.01237.0038-.17188.05187-.00651.00206-.11393.03479-.0026.00076-.05925.01807-.0026.00078c-.15756.0485-.31771.0983-.47526.148l-.00847.00271c-.0983.03116-.19466.06176-.293.09339l-.0013.00042-.17318.05594-.01041.00325-.16992.05548-.01042.00356-.17057.05609-.00782.00266-.10612.03519-.01041.00353c-.05729.019-.11654.039-.17383.05818l-.00326.001-.17643.05983-.00065.0002q-.2373.08075-.474.16315v.00006A64.19491,64.19491,0,0,0,37.75651,191.9013l-.0013.002c-.10807.11987-.21485.2393-.32162.36l-.00846.00947-.11523.13015-.00717.0088c-.03841.04322-.07682.08713-.11458.13046l-.00911.00975c-.02279.026-.04493.05133-.06706.07736l-.00977.01087-.03776.0429-.0039.00492-.07422.085-.00521.006c-.03646.04254-.07552.08726-.112.1299l-.01237.014-.10807.12566-.01563.01822c-.01953.02332-.041.0478-.06054.07115l-.01172.01389-.03321.03854-.01692.01982-.05729.06728-.015.01773-.03255.03849-.01758.02043c-.01693.02052-.03581.04269-.05338.06323L36.416,193.44l-.03125.03648-.02539.03059-.04362.05164-.02344.028-.041.049-.028.03341-.02865.03388-.026.03175-.03646.04351-.0306.03638-.02734.03306-.02669.03208-.04167.05081-.02344.02815-.0293.03579-.03385.04072-.0332.04017-.026.03188-.02409.02969-.04427.05349-.02409.0296-.028.03459-.03385.04136-.03385.04153-.02344.02875-.03581.04417-.02409.0297-.03841.0474-.01823.02253-.04622.05725-.02019.025-.03515.04343-.01758.02256-.04753.05922-.01757.02186-.03842.04815-.01367.01706-.04817.0605-.01823.02221-.043.05421-.01107.01406-.04622.05855-.01823.02277c-.01693.022-.03125.04008-.04883.0621l-.00781.01-.04493.05651-.01432.01876-.05078.06407-.00911.012-.04688.06006-.00911.01167c-.01758.0221-.03581.04532-.05274.06745l-.00911.01137-.05078.06575-.00326.00423c-.01888.02374-.03516.04473-.05338.06849l-.00977.01319c-.03711.04753-.07161.0924-.10807.14l-.00847.01023-.05338.07-.00456.00581-.05273.06923-.00391.00443-.05534.07242-.00456.00673-.112.14675-.00391.00517c-.03646.04793-.07487.09916-.11133.14718l-.00456.00632c-.0358.048-.07356.09785-.10937.146l-.00651.00822c-.056.07543-.11328.15242-.16992.2281v.00024q-1.26759,1.71007-2.42253,3.50507a10.66666,10.66666,0,0,0,17.95378,11.52264A42.57888,42.57888,0,0,1,85.33333,192a10.66667,10.66667,0,1,0,0-21.33333Z" style="fill:#eff2ff"/><path d="M85.33333,298.66667l-.09179.00007-.02149,0-.08919.00022-.01563,0-.07812.00031-.02279.00011-.08659.00048-.02213.00015-.07682.00054-.01693.00013-.08789.00077-.02474.00023-.07943.00083-.01172.00013-.08854.001-.02474.00031-.08854.0012-.00781.00012-.08594.00129-.01888.0003-.0905.0015-.01627.0003-.07813.00143-.02018.00037L84,298.68035l-.02018.00043-.07878.00169-.015.00033-.08854.002-.02279.00055-.08789.00217-.00912.00023-.084.00221-.02214.0006-.08984.00248-.013.00039-.08268.00242-.01628.00049-.09049.0028-.01693.00055-.08464.00275-.01041.00034-.0918.00314-.01823.00064-.09114.00327-.00066,0-.09114.0034-.02149.00082-.09049.00352-.00781.00031-.08464.00343-.02018.00083-.08854.00374-.01758.00074-.07682.00338-.01888.00083-.08854.004-.02019.00095-.07942.00373-.01433.00066-.08789.00427-.02344.00115-.08593.00429-.01367.00072-.07943.00408-.02149.00115-.08789.00467-.01758.00094-.07812.00428-.01823.001-.08854.005-.01888.0011-.08073.00467-.01237.00073-.08919.00533-.02018.00123-.08464.00515-.00977.00061-.08593.00541-.02344.00146-.08919.00576-.00651.0004-.08529.00563-.01953.0013-.08724.00591-.01888.00131-.07617.00523-.01953.00137-.08659.00613-.02149.00156-.08073.00583-.00976.00073-.08789.00647-.02344.00176-.08659.00654-.01367.00107-.07813.006-.02213.00176-.08659.00681-.01823.00141-.07617.00617-.01823.00147-.08659.00707-.02344.00192-.07617.00636-.01432.00122-.08659.00735-.02409.0021-.08333.00724-.00847.00072-.084.0074-.02409.00218-.08659.00773-.01432.00135-.07617.007-.02279.00206-.08594.008-.01953.00186-.07356.007-.02019.00191-.08528.00824-.02214.00213-.07877.00771-.01237.00122-.08464.00839-.02734.00275-.08138.00822-.02149.00224-.069.00706-.026.00269-.08333.00866-.02214.00235-.07161.00756-.02084.00227-.08268.00887-.028.003-.07032.00769-.01692.00187-.084.00931-.026.00286-.08529.00958-.00651.00078-.08138.00922-.02669.003-.082.00951-.02083.00244-.069.00808-.02539.00295-.082.00978-.02474.003-.06835.00821-.02279.0027-.08268.01008-.02539.00317-.07553.00932-.01237.00151-.08463.01057-.02539.00321-.08268.01045-.02084.00271-.069.00879-.02539.0033-.08333.01086-.02018.00263-.07032.00923-.02343.00307-.08073.01076-.028.00375-.06771.0091-.02083.00283-.07943.01084-.0306.00422-.07747.01063-.01953.00274-.06836.00957-.03255.00458-.07682.0108-.02865.00413-.05925.00839-.0319.00455-.07682.01111-.02995.00436-.06054.00888-.0267.00393-.07747.01142-.0332.00486-.0612.00913-.03906.00589-.0612.00928-.03646.00545-.0625.00959-.04557.007-.05013.0077-.03581.00554-.07357.01143-.03581.00561-.05273.00827-.03385.00532-.07422.01181-.03451.00553-.05729.00919-.03255.0053-.071.01145-.03255.0053-.06836.01122-.0358.00582-.05665.00941-.03645.00611-.07422.01239-.0319.00527-.05144.00875-.0371.00622-.07227.0123-.03516.00608-.05078.0087-.05013.00859-.05729.01-.03906.00678-.05143.009-.05013.00883-.05339.00938-.03776.00675-.05729.01017-.05078.00909-.04948.00894-.03581.00649-.07161.013-.03907.00714-.04557.00838-.03711.00676-.07031.013-.04037.00753-.04882.00907-.04883.00912-.05729.01077-.03776.00725-.05274.01-.05534.01055-.04362.00827-.04166.008-.06641.01285-.04167.008-.04557.00894-.03841.00743-.07031.01388-.03972.00774-.04232.00844-.05924.0117-.04818.00967-.043.0086-.041.00819-.071.01436-.03581.00726-.04623.00936-.04166.00859-.06771.01386-.03581.00738-.04557.00938-.06445.01343-.04428.00914-.041.00863-.05274.01106-.05468.01155-.043.00907-.043.00913-.06055.013-.04362.00934-.04427.00957-.03906.00841-.06966.0151-.03776.00814-.04558.01-.04622.01006-.0625.01376-.03646.008-.04362.00962-.06575.01466-.04362.00977-.03711.00827-.07162.01612-.03776.00855-.04492.01022-.03581.00812-.07291.01655-.03646.00831-.043.00992-.04427.01028-.069.01585-.03125.00726-.06576.01534-.04492.0105-.04817.0113-.0293.007-.07748.01829-.0332.008-.04687.01109-.03776.00894-.06771.0163-.03776.00905-.04688.01138-.03255.00783-.07747.0189-.0293.00714-.04948.012-.04362.01066L70,300.52263l-.03776.00933-.06576.01637-.041.01026-.04623.0115-.0319.008-.07942.02-.02995.00745-.04753.012-.0306.00785-.07942.02009-.0306.00785-.04883.01251-.01693.00435-.09375.02425-.026.00675-.0944.02441-.01628.00422-.04687.01228-.03516.00923-.06185.01621-.04622.01234-.043.01122-.03776.0101-.07031.01872-.03451.00917-.04557.0123-.03581.00951-.07357.01995-.03059.00818-.04883.01321-.01888.00514-.0892.02439-.02929.00795-.08789.02426-.02019.00555-.04947.01369-.02735.00742-.08333.02317-.02735.0077-.04817.01351-.02735.00758-.08333.0235-.02539.00707-.05143.01465-.00456.00125-.10807.03067-.01823.0053c-.056.01588-.11133.03186-.16667.04788l-.01562.00455c-.056.016-.11459.0331-.16992.04929l-.00847.0024-.10482.03075-.01432.00418-.16862.04986-.01432.00427-.16927.05058-.01237.0038-.17188.05187-.00651.00206-.11393.03479-.0026.00076-.05925.01807-.0026.00078c-.15756.0485-.31771.0983-.47526.148l-.00847.00271c-.0983.03116-.19466.06176-.293.09339l-.0013.00042-.17318.05594-.01041.00325-.16992.05548-.01042.00356-.17057.05609-.00782.00266-.10612.03519-.01041.00353c-.05729.019-.11654.039-.17383.05818l-.00326.001-.17643.05983-.00065.0002q-.2373.08075-.474.16315v.00006A64.19491,64.19491,0,0,0,37.75651,319.9013l-.0013.002c-.10807.11987-.21485.2393-.32162.36l-.00846.00947-.11523.13015-.00717.0088c-.03841.04322-.07682.08713-.11458.13046l-.00911.00975c-.02279.026-.04493.05133-.06706.07736l-.00977.01087-.03776.0429-.0039.00492-.07422.085-.00521.006c-.03646.04254-.07552.08726-.112.1299l-.01237.014-.10807.12566-.01563.01822c-.01953.02332-.041.0478-.06054.07115l-.01172.01389-.03321.03854-.01692.01982-.05729.06728-.015.01773-.03255.03849-.01758.02043c-.01693.02052-.03581.04269-.05338.06323L36.416,321.44l-.03125.03648-.02539.03059-.04362.05164-.02344.028-.041.049-.028.03341-.02865.03388-.026.03175-.03646.04351-.0306.03638-.02734.03306-.02669.03208-.04167.05081-.02344.02815-.0293.03579-.03385.04072-.0332.04017-.026.03188-.02409.02969-.04427.05349-.02409.0296-.028.03459-.03385.04136-.03385.04153-.02344.02875-.03581.04417-.02409.0297-.03841.0474-.01823.02253-.04622.05725-.02019.025-.03515.04343-.01758.02256-.04753.05922-.01757.02186-.03842.04815-.01367.01706-.04817.0605-.01823.02221-.043.05421-.01107.01406-.04622.05855-.01823.02277c-.01693.022-.03125.04008-.04883.0621l-.00781.01-.04493.05651-.01432.01876-.05078.06407-.00911.012-.04688.06006-.00911.01167c-.01758.0221-.03581.04532-.05274.06745l-.00911.01137-.05078.06575-.00326.00423c-.01888.02374-.03516.04473-.05338.06849l-.00977.01319c-.03711.04753-.07161.0924-.10807.14l-.00847.01023-.05338.07-.00456.00581-.05273.06923-.00391.00443-.05534.07242-.00456.00673-.112.14675-.00391.00517c-.03646.04793-.07487.09916-.11133.14718l-.00456.00632c-.0358.048-.07356.09785-.10937.146l-.00651.00822c-.056.07543-.11328.15242-.16992.2281v.00024q-1.26759,1.71007-2.42253,3.50507a10.66666,10.66666,0,0,0,17.95378,11.52264A42.57888,42.57888,0,0,1,85.33333,320a10.66667,10.66667,0,1,0,0-21.33333Z" style="fill:#eff2ff"/></g></svg>