<svg xmlns="http://www.w3.org/2000/svg" viewBox="0 0 512 512"><title>Artboard 141</title><g id="Clipboard"><rect x="85.33333" y="85.33333" width="341.33333" height="405.33333" rx="42.66667" ry="42.66667" style="fill:#ffbe00"/><path d="M384,85.33333H127.89543l-.05746.00033h-.02661l-.06128.00032-.01929.00033-.07926.00033-.02181.00032-.05868.00065h-.0284l-.05493.00065-.026.00033-.06649.001-.01448.00032-.07805.001-.02645.00065-.0546.00065-.02816.00065-.05656.001-.02458.00065-.07926.00163-.0109.00032-.06861.00163-.02563.00065-.05762.0013-.0245.00065-.0638.00163-.01725.00065-.07853.00228-.02271.00065-.05745.00195-.0284.00066-.056.002-.02368.001-.07943.0026-.00667.00032-.07447.00293-.02173.00066-.05786.00227-.02718.00131-.05965.00227-.02018.001-.07919.00326-.01749.001-.06234.00293-.02572.001-.0555.0026-.02685.00131-.07609.0039h-.00171l-.07886.00423-.02645.00131-.05363.00293-.029.00162-.05412.00293-.02563.00163-.07658.00423-.02124.0013-.058.00358-.02937.00163-.05135.00326-.02873.00163-.05851.0039-.02124.0013-.07626.00521-.0258.00163-.0533.00358-.02946.002-.05265.00391-.02759.00195-.076.00521-.01619.0013-.06267.00456-.02718.00228-.05306.00391-.02913.00227-.05558.00424-.02287.002-.0756.00586-.02613.00228-.05379.00423-.02873.0026-.05289.00423-.02613.00228-.15633.01368-.02466.00227-.05525.00489-.02637.0026-.05656.00521-.02336.00195-.07682.00749-.019.00163-.05819.00553-.02995.00293-.05249.00521-.02506.0026-.07023.00716-.00806.00066-.07877.00813-.02141.00228-.05664.00586-.02742.00293-.05721.00586-.02084.00228-.07772.00846-.01521.00163-.06283.00716-.02734.00293-.051.00586-.02937.00326-.05608.00651-.022.0026-.075.00846-.026.00326-.05184.00618-.03019.00358-.04875.00586-.0306.00391-.06665.00814-.02335.00293-.06071.00749-.02922.00358-.04948.00651-.03133.0039-.0459.00586-.03231.00423-.07177.00944-.02767.00358-.04981.00652-.033.00455-.04476.00619-.03247.00423-.05208.00716-.03792.00521-.05982.00846-.03068.00423-.046.00651-.03288.00456-.04842.00716-.02856.00391-.07276.01074-.026.00391-.051.00749-.03068.00455-.04777.00716-.0306.00456-.0586.00879-.01676.0026-.07381.0114-.0306.00488-.04655.00716-.03255.00521-.04582.00716-.03092.00488-.06844.01075-.0267.00455-.05257.00847-.03467.00553-.04231.00684-.033.00553-.04794.00814-.02938.00488-.07145.01205-.02856.00455-.0468.00814-.03336.00586-.045.00749-.03181.00553-.05852.01042-.0271.00456-.06176.01106-.03036.00521-.0463.00847-.03248.00585-.04663.00814-.02921.00554-.07048.01269-.03068.00586-.04581.00846-.0341.00619-.04094.00749-.035.00683-.04956.00912-.02783.00553-.06836.013-.03182.00619-.0433.00813-.03532.00684-.03922.00781-.0367.00716-.06356.01237-.03426.00684-.04525.00911-.035.00684-.04224.00879-.033.00651-.049.01009-.02539.00521-.07227.01465-.02636.00553-.04843.01009-.03238.00684-.04411.00911-.03142.00651-.04964.01075-.04915.01041-.04606.00977-.03329.00716-.042.00911-.03361.00717-.04492.00976-.03044.00684-.06771.015-.03759.00814-.03671.00814-.03784.00846-.03662.00846-.03865.00847-.03679.00846-.06315.01432-.03922.00912-.03825.00879-.03687.00846-.038.00879-.03622.00846-.03711.00847-.04988.01172-.05241.01237-.03825.00911-.03809.00912-.03564.00846-.03776.00911-.03784.00912-.05445.013-.04809.01172-.03817.00944-.03345.00814-.04093.01009-.033.00814-.03988.01009-.04126.01041-.0577.01433-.03971.01009-.03719.00944-.03638.00911-.03735.00944-.04134.01074-.0306.00782-.06714.01725-.03743.00976-.03581.00945-.039.01009-.03255.00846-.04069.01074-.03158.00847-.07129.01888-.03418.00911-.03874.01042-.03426.00911-.03792.01009-.036.00977-.03768.01041-.06307.01726-.03743.01009-.037.01042-.0367.01009-.03785.01041-.0354.00977-.03751.01042-.05632.01595-.04524.01269-.0328.00944-.04085.01139-.03418.00977-.03923.01139-.03377.00944-.05314.0153-.04452.013-.04126.012-.036.01041-.03605.01042-.03654.01074-.03874.0114-.03369.01009-.06486.0192-.03792.0114-.03369.01009-.039.01172-.03256.00976-.03938.01172-.03662.01107-.061.01855-.03776.01172-.03686.0114-.03646.01106-.03483.01075-.04135.01269-.03011.00944-.067.02083-.03215.0101-.03857.012-.03727.012-.03508.01107-.03556.01107-.0389.01237-.057.01823-.04118.01334-.03548.0114-.03491.01139-.03752.01205-.03483.01139-.03711.012-.03467.0114-.06779.02213-.03092.01009-.04.01335-.02978.00976-.04232.014-.02645.00879-.07121.02409-.03377.01139-.0367.01237-.03573.01205-.03654.01237-.03263.01106-.03882.01335-.03263.01107-.06657.02279-.03378.01171-.03914.01368-.03052.01041-.03955.01367-.0297.01042-.06625.02344-.03719.013-.03678.013-.032.01107-.03988.01432-.03027.01074-.04.01433-.02848.01009-.0752.027-.02661.00944-.04.01464-.03109.0114-.03808.01367-.03369.01237-.03557.013-.03816.014-.064.02343-.03019.01107-.03931.01465-.03.01107-.03882.01465-.03271.012-.06478.02442-.034.01269-.03816.01432-.03158.012-.03629.01367-.035.01335-.03646.014-.02783.01075-.074.02832-.02759.01074-.04.0153-.02979.01172-.03849.01464-.03166.01237-.05175.02019-.04786.01888-.03344.013-.03581.01432-.03654.01432-.0319.0127-.03727.01465-.03117.01269-.06844.02735-.03036.012-.03914.01563-.028.01139-.04117.0166-.0271.01107-.04061.0166-.01848.00749-.08162.0332-.02751.01139-.0402.0166-.028.0114-.04029.0166-.03125.013-.05615.02344-.04085.01692-.03557.015-.03393.014-.035.015-.03451.01432-.03385.01433-.0472.02018-.04826.02051-.03483.01464-.03573.0153-.033.014-.03491.015-.03524.01529-.05167.02247-.04346.01855-.03386.015-.03361.01465-.03556.0153-.03288.01465-.03645.016-.02759.012-.0708.03125-.02841.01237-.037.0166-.03125.014-.03752.01661-.02889.013-.038.01692-.04289.01921-.053.02409-.03174.01432-.03662.0166-.02938.013-.03816.01758-.02906.01335-.06828.03125-.0284.013-.03947.0179-.02685.01237-.03923.01823-.02669.01237-.04053.01888-.01359.00619-.08252.03873-.02759.0127-.03922.01855-.02791.013-.03866.01823-.02572.01237-.08064.03809-.01709.00814-.04012.0192-.02645.0127-.03939.01888-.02881.01367-.03507.01693-.03662.01758-.05933.029-.03084.015-.03638.01758-.02881.014-.03727.01823-.03182.01562-.04159.02051-.05143.02506-.03524.01758-.03141.01563-.03491.01725-.0306.0153-.037.01823-.02824.01432-.06331.03158-.0319.016-.03614.01823-.02962.015-.03654.01855-.02807.014-.12964.06608-.03239.0166-.03467.01791-.02995.0153-.03629.01855-.026.01367-.07211.03711-.02474.013-.03743.01953-.02686.014-.03767.01953-.02922.0153-.035.01856-.03768.01985-.05477.029-.03093.01627-.03434.01823-.03166.0166-.034.01823-.03288.01758-.04525.02409-.04443.02409-.03451.01855-.0319.01693-.03255.01758-.03353.01823-.03141.01725-.04126.02213-.04907.027-.03288.01791-.03556.01953-.02906.016-.03475.0192-.02978.01628-.07829.04329-.01351.00749-.03719.02083-.0262.01433-.03662.0205-.02889.01628-.03557.01986-.02742.0153-.06454.03646-.02783.01562-.03524.01986-.029.0166-.03581.02051-.02783.01562-.03532.02018-.03035.01726-.05949.03418-.03133.0179-.03426.01986-.02751.016-.03646.02116-.02783.016-.05672.03287-.03532.02051-.033.01953-.03019.01758-.03345.01953-.03052.01791-.03377.01985-.03972.02344-.04663.02767-.03279.01953-.03337.01986-.031.01823-.033.01985-.03011.01791-.03272.01953-.057.03418-.03052.01855-.0328.01953-.03182.01954-.03369.02018-.02791.01692-.04273.026-.0402.02441-.03979.02441-.02824.01726-.03508.02148-.02921.01823-.03549.02181-.02848.01758-.057.03516-.02849.01757-.03524.02214-.02766.01725-.03663.02279-.02815.01758-.03923.02474-.031.0192-.05.03158-.02751.01757-.03646.02279-.02718.01725-.03743.02377-.02539.01627-.05917.03776-.01994.0127-.04264.02734-.02677.01725-.03589.02312-.02735.01758-.0402.02571-.02189.01432-.05973.03874-.02141.014-.04036.02637-.02588.0166-.03947.026-.0227.01465-.06071.04-.00879.00586-.05265.03483-.02352.0153-.0389.02571-.02531.01693-.044.0293-.01668.01106-.06112.04069-.01676.0114-.04671.03125-.01962.01334-.04492.03028-.01831.01237-.05965.04-.00252.002-.06145.04167-.02026.01367-.04215.029-.02165.01465-.04346.02995-.01929.013-.0603.04134-.01269.00879-.04883.03385-.02018.014-.04346.02995-.0201.014-.04981.03483-.01139.00782-.06087.04264-.01636.01139-.04557.0319-.02027.01433-.04476.03157-.01668.01172-.06087.0433-.00789.00553-.05469.03874-.01571.01106-.04614.03288-.01815.013-.05135.03679-.00968.00716-.06153.04427-.01367.00976-.04769.03451-.01806.013-.04484.03255-.01775.0127-.11979.08756-.02042.015-.04175.0306-.01953.01432-.04794.03515-.012.00879-.06152.04558-.00847.00651-.05216.03841-.01685.01269-.04712.03516-.01318.00977c-.04175.03125-.08219.06152-.12378.09309l-.01017.00749-.05.03776-.01611.01205-.05046.03841-.0096.00716-.0625.04753-.00073.00065-.05974.04557-.01245.00944-.04874.03743-.01481.0114-.05705.04394-.00212.00163-.06234.04818-.00813.00618-.05217.04069-.01448.01107-.04672.03646-.01456.01139c-.04037.03125-.081.06315-.12118.095l-.00968.00749-.05176.04069-.011.00879-.05631.0446-.00407.00325c-.04085.03223-.08138.06445-.12207.097l-.01205.00976-.05143.041-.00879.00716c-.04061.03255-.08162.06543-.12207.09831l-.00765.00618-.05273.04264-.011.00879-.05745.04688-.00114.001c-.041.0332-.08252.06738-.12337.10091l-.00773.00618-.05518.04557-.00553.00456c-.04078.03353-.08228.06771-.12289.10156l-.00447.00391-.05591.04655-.00749.00619-.057.04752-.00309.00261-.12256.10286-.005.00423-.05721.0485-.00375.00326c-.06054.05111-.12174.10352-.182.15495l-.00765.00651-.05705.04915-.00122.001c-.06144.05273-.12215.10547-.18327.15853l-.0039.00325q-.0907.07911-.18116.15886l-.00439.0039-.05583.04916-.0048.00423c-.06006.05306-.12044.10677-.18018.16015l-.00309.00261q-.09057.081-.18083.16276l-.00065.00065c-.08089.07324-.16088.14583-.24121.21973l-.00065.00065a42.87955,42.87955,0,0,0-7.053,8.3737,10.66665,10.66665,0,1,0,17.93946,11.54492A21.28708,21.28708,0,0,1,128,106.66667H384a21.19672,21.19672,0,0,1,15.0612,6.22461,10.66658,10.66658,0,0,0,15.0612-15.1084,42.83462,42.83462,0,0,0-7.38217-5.891l-.00081-.00065-.10742-.06771-.00147-.00065c-.035-.02214-.07047-.04427-.10563-.06608l-.0039-.00228-.05046-.03158-.00391-.00228-.0498-.03092-.00521-.00326-.0529-.03255-.00032-.00032-.051-.03125-.005-.00326-.05078-.03125-.00342-.002-.04964-.03028-.006-.00358-.05013-.0306-.00407-.0026-.04606-.028-.01124-.00684-.04313-.026-.01123-.00684-.04541-.02734-.00911-.00554-.04753-.02832-.007-.00423-.04443-.02669-.01253-.00749-.04492-.027-.00863-.00488-.04509-.027-.01139-.00651-.04541-.027-.00879-.0052-.04378-.026-.01318-.00781-.04362-.02571-.01058-.00619-.04346-.02539-.01318-.00781-.04346-.02539-.01091-.00619-.042-.02441-.01546-.00912-.04053-.02343-.01432-.00847-.04069-.02343-.01546-.00912-.04248-.02441-.01189-.00684-.04085-.02344-.01725-.01009-.03857-.02181-.01612-.00944-.03987-.02278-.01661-.00944-.03987-.02247-.01546-.00878-.0389-.02214-.0184-.01042-.03841-.02181-.01644-.00911-.03955-.02214-.01725-.00976-.04118-.02311-.01318-.00749-.04167-.02311-.01611-.00912-.04-.02246-.01546-.00846-.03939-.02181-.01823-.01009-.03874-.02149-.0166-.00911-.03906-.02149-.01823-.01009-.0389-.02116-.01676-.00944-.03972-.02148-.01709-.00944-.04118-.02246-.01416-.00781-.041-.02214-.01709-.00911-.0402-.02181-.0153-.00847-.042-.02246-.01481-.00814-.04248-.02278-.01367-.00716-.04167-.02247-.01643-.00878-.04118-.02181-.01481-.00782-.04053-.02181-.01774-.00944-.03923-.02083-.01725-.00879-.03809-.02018-.0205-.01074-.036-.01888-.02084-.01107-.036-.01888-.02148-.01107-.03744-.01953-.01839-.00977-.03711-.0192-.02213-.0114-.03467-.0179-.02165-.01139-.03695-.01888-.02018-.01042-.03759-.01953-.01921-.00977-.03678-.01888-.02247-.01139-.03515-.0179-.02132-.01075-.03614-.01855-.02181-.01107-.03613-.01823-.02116-.01074-.03548-.0179-.02279-.0114-.03515-.01757-.0223-.0114-.03451-.01725-.02408-.012-.03386-.01693-.02311-.01139-.03532-.01758-.02279-.0114-.035-.01725-.02262-.01107-.03548-.01757-.0223-.01075-.03662-.01823-.02067-.01009-.03646-.0179-.023-.01107-.03467-.01693-.02246-.01106-.03678-.01758-.02149-.01042-.03678-.0179-.02084-.01009-.0358-.01726-.02474-.012-.033-.01562-.02393-.0114-.035-.01693-.02393-.01139-.03434-.01627-.02344-.01107-.03434-.01628-.02523-.012-.03418-.01628-.02279-.01074-.03531-.0166-.02409-.0114-.03565-.0166-.02148-.01009-.036-.0166-.02474-.01172-.03386-.01562-.02327-.01075-.03613-.01692-.02279-.01042-.03695-.01693-.02067-.00976-.03759-.01725-.0223-.0101-.0376-.01725-.01969-.00911-.03907-.01758-.0205-.00944-.03874-.01758-.0197-.00879-.03759-.01693-.02377-.01074-.03466-.01562-.0236-.01074-.03532-.016-.02458-.01074-.03548-.01595-.022-.00976-.03728-.01661-.02311-.01041-.03564-.01563-.02312-.01009-.0358-.016-.02425-.01074-.03581-.01563-.022-.00976-.03711-.016-.02393-.01074-.03516-.0153-.0236-.01009-.036-.01563-.02376-.01042-.03678-.016-.02132-.00911-.03728-.016-.02425-.01042-.03532-.015-.02311-.01009-.03727-.016-.0223-.00944-.03776-.016-.02132-.00911-.03792-.016-.02295-.00977-.03679-.0153-.02262-.00976-.0363-.015-.0249-.01042-.035-.01465-.02393-.01009-.03515-.01465-.027-.01107-.03223-.01334-.02718-.0114-.03255-.01334-.02832-.01172-.03223-.013-.0262-.01074-.03467-.01433-.026-.01041-.034-.014-.02555-.01042-.035-.014-.02522-.01041-.03532-.014-.02442-.00977-.03564-.01464-.02523-.0101-.03548-.014-.02409-.00977-.0363-.01432-.02457-.00977-.03581-.01432-.02409-.00944-.036-.014-.02571-.01041-.03451-.01335-.02572-.01009-.035-.01367-.02555-.01009-.03532-.01368-.02556-.00976-.03369-.013-.02815-.01107-.03321-.0127-.02669-.01041-.03337-.0127-.02832-.01074-.033-.0127-.02588-.00976-.03548-.01367-.02669-.01009-.03434-.013-.02474-.00944-.03646-.01368-.02555-.00944-.035-.01334-.02523-.00944-.0358-.01335-.026-.00944-.03565-.01335-.02392-.00879-.037-.01367-.02555-.00944-.03549-.013-.02441-.00911-.03678-.01335-.02588-.00944-.03532-.013-.02523-.00911-.035-.0127-.028-.01009-.034-.01237-.02506-.00912-.03678-.013-.02556-.00911-.0358-.013-.02458-.00879-.03679-.013-.02539-.00879-.03694-.01335-.023-.00813-.03744-.013-.027-.00944-.034-.012-.02653-.00911-.03565-.01237-.02588-.00912-.03645-.01269-.0236-.00814-.03842-.01335-.02425-.00814-.03759-.013-.02312-.00814-.03857-.013-.02393-.00813-.03808-.013-.023-.00781-.03825-.013-.02555-.00846-.0363-.01237-.02474-.00814-.03695-.01237-.026-.00879-.036-.012-.0249-.00814-.0376-.0127-.02457-.00813-.03793-.01237-.02295-.00749-.03971-.013-.0223-.00749-.04036-.013-.02067-.00684-.04086-.01334-.02343-.00749-.0389-.01237-.02214-.00716-.04036-.013-.0223-.00716-.04-.013-.02148-.00651-.04086-.013-.02262-.00717-.03971-.01269-.022-.00684-.0402-.01269-.02295-.00716-.04-.0127-.02181-.00684-.03971-.01237-.02474-.00748-.03792-.01172-.02442-.00749-.03743-.01172-.026-.00781-.03744-.01172-.02376-.00716-.03858-.01172-.02571-.00781-.03646-.01107-.02669-.00814-.03581-.01074-.027-.00814-.03646-.01074-.02523-.00749-.03759-.01139-.02556-.00749-.03841-.01139-.02213-.00651-.04118-.012-.02263-.00651-.03938-.01172-.02442-.00716-.03857-.01107-.02474-.00716-.03858-.01107-.02408-.00716-.03874-.01107-.02523-.00716-.0376-.01074-.02522-.00717-.03809-.01106-.02555-.00716-.0376-.01075-.02555-.00716-.0376-.01042-.026-.00716-.03776-.01074-.02409-.00651-.03939-.01107-.02442-.00683-.03922-.01074-.02344-.00652-.03955-.01074-.02474-.00683-.03939-.01075-.02278-.00618-.03988-.01074-.0262-.00716-.03695-.00977-.02588-.00716-.03809-.01009-.0262-.00684-.03662-.00976-.02734-.00717-.03614-.00976-.028-.00716-.03662-.00977-.02523-.00651-.03841-.01009-.02653-.00684-.03711-.00976-.02556-.00651-.03824-.00977-.02686-.00683-.03695-.00944-.02718-.00716-.03564-.00912-.0306-.00749-.0332-.00846-.03028-.00781-.033-.00814-.0332-.00814-.0306-.00781-.03223-.00781-.03222-.00814-.03142-.00781-.03336-.00814-.02865-.00684-.03564-.00879-.02946-.00716-.035-.00846-.02751-.00684-.03695-.00879-.028-.00683-.036-.00847-.028-.00683-.036-.00847-.02978-.00716-.03483-.00814-.02784-.00651-.03645-.00846-.02963-.00684-.03418-.00813-.02946-.00684-.03531-.00814-.03044-.00716-.03353-.00749-.03044-.00683-.03434-.00814-.03043-.00684-.03435-.00781-.02913-.00651-.035-.00781-.03093-.00684-.03418-.00781-.029-.00618-.03564-.00814-.02881-.00619-.03662-.00814-.0267-.00585-.03743-.00814-.02914-.00619-.036-.00781-.02718-.00586-.03776-.00814-.02783-.00586-.03695-.00781-.02685-.00586-.03809-.00814-.02653-.00553-.0389-.00814-.02457-.00521-.04037-.00814-.02474-.0052-.04053-.00847-.02392-.00488-.04037-.00814-.02815-.00586-.0363-.00748-.02864-.00554-.03646-.00748-.02979-.00586-.035-.00717-.02995-.00586-.035-.00716L392.299,86.14l-.03548-.00683-.028-.00554-.03727-.00748-.0275-.00521-.03793-.00749-.02767-.00521-.03727-.00716-.02881-.00553-.03662-.00684-.02751-.00521-.03824-.00716-.02849-.00553-.0358-.00651-.03-.00586-.0363-.00651-.02962-.00554-.03516-.00651-.02994-.00553-.03614-.00651-.02881-.00521-.03662-.00651-.02864-.00521-.03695-.00651-.0306-.00553-.03434-.00619-.03109-.00553-.03483-.00586-.03239-.00586-.03255-.00553-.03255-.00586-.03386-.00586-.03157-.00521-.034-.00586-.03109-.00521-.03483-.00586-.03173-.00553-.034-.00553-.02995-.00521-.03646-.00586-.02995-.00489-.0358-.00585-.02816-.00489-.03841-.00618-.02686-.00423-.03906-.00619-.02767-.00456-.0376-.00618-.0306-.00456-.03564-.00586-.02962-.00456-.03581-.00553-.0319-.00488-.03467-.00554-.02848-.00423-.03793-.00586-.02864-.00455-.03776-.00554-.02669-.00423-.03956-.00586-.02783-.00391-.03808-.00585-.02816-.00424-.03792-.00553-.02832-.00391-.03874-.00586-.02442-.00325-.04182-.00619-.02735-.0039-.03808-.00554-.03012-.0039-.03613-.00521-.03157-.00456-.035-.00488-.02994-.00391-.03646-.00521-.03076-.0039-.036-.00488-.02783-.00391L389.694,85.71l-.02848-.00391-.0376-.00488-.03011-.0039-.0363-.00489-.03076-.0039-.036-.00456-.02848-.00358-.03858-.00488-.0288-.00391-.03776-.00456-.02816-.00358-.03841-.00488-.02914-.00358-.03776-.00456-.028-.00325-.03858-.00489-.02929-.00358-.0376-.00423-.02751-.00326-.03971-.00488-.02735-.00325-.03906-.00456-.02783-.00293-.03939-.00456-.026-.00293-.0415-.00488-.02263-.0026-.04411-.00489-.02408-.0026-.043-.00456-.0236-.0026-.0433-.00489-.0236-.0026-.04411-.00456-.02148-.00228-.04476-.00455-.02572-.00293-.0415-.00423-.02539-.00261-.04134-.00423-.028-.00293-.03922-.00391-.02979-.00293-.03662-.00358-.03385-.00325-.03337-.00326-.03434-.00325-.03271-.00326-.03614-.00325-.03125-.00293-.03222-.00293-.036-.00358-.02735-.00228-.0402-.00391-.02734-.00228-.03972-.00358-.02783-.0026-.0402-.00326-.02637-.00227-.04036-.00359-.03321-.00293-.03369-.00292-.03385-.00261-.034-.00293-.03271-.0026-.03483-.00293-.03272-.00261-.03467-.0026-.0345-.00293-.0332-.0026-.03125-.00228-.03679-.00293-.03027-.00228-.03744-.00261-.02929-.00227-.03809-.00293-.03158-.00228-.03629-.00261-.03011-.00195-.03744-.0026-.03206-.00228-.03581-.00261-.02864-.00162-.03955-.00293-.02849-.00163-.03906-.00261-.03141-.00195-.03614-.0026-.034-.002-.034-.00228-.03662-.00227-.0306-.00163-.04525-.00293-.02229-.0013L386.491,85.405l-.0249-.00163L386.425,85.401l-.027-.0013-.04053-.00228-.02734-.00163-.03662-.002-.03223-.00163-.03027-.00163-.03776-.00195-.036-.00163-.03174-.00162-.03418-.00163-.03451-.00163-.02913-.00163-.03923-.00162-.0262-.00131-.042-.002-.02588-.001-.04264-.00195-.022-.001-.04622-.002-.02132-.00065-.0472-.002-.01953-.00065-.04818-.002-.03076-.0013-.03728-.0013-.03271-.001-.03581-.0013-.02995-.001-.03873-.00162-.02409-.00065-.04427-.00131-.02572-.001-.04264-.00131-.03386-.001-.03418-.001-.0358-.001-.033-.001-.02881-.00065-.03972-.001-.02978-.001-.03874-.00065-.02946-.001-.03922-.00065-.02849-.00066-.04-.001-.027-.00033-.04183-.001-.02409-.00033-.04443-.001-.03207-.00032-.03629-.00065-.043-.00065-.02572-.00033-.03678-.00065-.03223-.00033-.03141-.00032-.03727-.00065-.04281-.00033-.02572-.00032L384.362,85.335l-.01725-.00032-.03646-.00033h-.03272l-.01546-.00033-.12223-.00032h-.02214c-.03873-.00033-.077-.00033-.11572-.00033Z" style="fill:gold"/><path d="M384,149.33333H170.66667a21.33334,21.33334,0,0,0-21.33334,21.33334V448a21.33334,21.33334,0,0,0,21.33334,21.33333H344.99355a42.66666,42.66666,0,0,0,30.16989-12.49677l17.67312-17.67312a42.66666,42.66666,0,0,0,12.49677-30.16989V170.66667A21.33334,21.33334,0,0,0,384,149.33333Z" style="fill:#ffa300"/><path d="M377.75161,390.24839l-51.50322,51.50322A21.33332,21.33332,0,0,1,311.16344,448H149.33333A21.33333,21.33333,0,0,1,128,426.66667V149.33333A21.33333,21.33333,0,0,1,149.33333,128H362.66667A21.33333,21.33333,0,0,1,384,149.33333V375.16344A21.33332,21.33332,0,0,1,377.75161,390.24839Z" style="fill:#ccd4ff"/><rect x="277.33333" y="362.66667" width="42.66667" height="85.33333" rx="21.33331" ry="21.33331" style="fill:#a4b1ff"/><rect x="149.33335" y="128" width="213.33329" height="42.66667" rx="21.33331" ry="21.33331" style="fill:#a4b1ff"/><circle cx="192" cy="234.66667" r="21.33333" style="fill:#c175ff"/><rect x="234.66667" y="213.33333" width="106.66667" height="42.66667" rx="21.33331" ry="21.33331" style="fill:#33527d"/><rect x="234.66667" y="277.33333" width="106.66667" height="42.66667" rx="21.33331" ry="21.33331" style="fill:#33527d"/><rect x="234.66667" y="341.33333" width="106.66667" height="42.66667" rx="21.33331" ry="21.33331" style="fill:#33527d"/><circle cx="192" cy="298.66667" r="21.33333" style="fill:#079cff"/><circle cx="192" cy="362.66667" r="21.33333" style="fill:#ffbe00"/><path d="M330.66667,85.33333H320a64,64,0,0,0-128,0H181.33333a32,32,0,0,0,0,64H330.66667a32,32,0,1,0,0-64ZM256,106.66667a21.33334,21.33334,0,1,1,21.33333-21.33334A21.33356,21.33356,0,0,1,256,106.66667Z" style="fill:#7d8fac"/><path d="M286.87,31.16178a10.66722,10.66722,0,0,0-6.18954,19.361,42.79561,42.79561,0,0,1,17.98617,34.81054A21.33351,21.33351,0,0,0,320,106.66667h2.96151a10.66667,10.66667,0,0,0,0-21.33334H320l-.00008-.09212V85.222l-.00025-.0892-.00008-.01758-.00032-.08528v-.00944l-.00049-.08919-.00016-.02214-.00065-.08887-.00009-.01367-.00073-.08431-.00016-.01367-.0009-.08952-.00024-.01986-.00106-.08886-.00016-.01563-.00114-.082-.00016-.01465-.00139-.09049-.00032-.01856-.00147-.09082-.00016-.00781-.00155-.08431-.00032-.01986-.00179-.08789-.00041-.01985-.00179-.08529-.00016-.00749-.002-.08952-.00057-.02148-.00211-.08594-.00049-.02148-.0022-.08171-.00024-.00911-.00252-.09115-.00049-.01888-.00269-.08952-.00032-.01237-.00269-.08756-.00032-.01009-.003-.09278-.00048-.01464-.00318-.09343-.00024-.00586-.00318-.08919-.00048-.014-.00334-.08854-.00073-.02051-.00358-.09082v-.00195l-.00375-.09115-.00065-.0166-.00382-.09049-.00057-.014-.00383-.08789-.00032-.00749-.00415-.09114-.00074-.01661L319.927,82.25l-.00073-.0166-.004-.08236-.00065-.01237-.00431-.08756-.00122-.02279-.0044-.08659-.00073-.01367-.00448-.08366-.00065-.013-.005-.09017-.001-.01725-.00512-.09147-.00033-.00586-.00513-.08854-.00081-.01433-.00545-.09082-.00082-.01465-.01139-.18424-.00122-.01921-.00562-.08756-.00114-.0166-.00553-.085-.00057-.00847-.0061-.09017-.00122-.01823-.00611-.08854-.00105-.01465-.0057-.08073-.00106-.01562-.00627-.08626-.00154-.02181-.00643-.08692L319.82023,80.5l-.00578-.07617-.00162-.02246-.0066-.08529-.00154-.01986-.00692-.08821-.00073-.00879-.00659-.08268-.00155-.01921-.00708-.08626-.00163-.01986-.00692-.08366-.00065-.00748-.00748-.08855-.00171-.01985-.00757-.08692-.00138-.0166-.007-.0791-.0013-.015-.00782-.08692-.00179-.01986-.008-.08756-.00122-.013-.00773-.08366-.00123-.01237-.00813-.08691-.00212-.02214-.00838-.08724-.00082-.00814-.008-.083-.00187-.01856-.00847-.08529-.002-.02083-.00814-.0804-.00187-.01856-.008-.0778-.00219-.02181-.00887-.08463-.002-.01953-.00871-.08236-.00081-.00781-.00928-.08692-.00236-.02148-.00936-.08659-.00162-.01432-.00879-.07976-.00171-.016-.00969-.08626-.00219-.01953-.00977-.08561-.002-.01725-.00887-.07715-.00187-.01595-.01-.08627-.00236-.02018-.01042-.08789-.00073-.00618-.01-.08334-.00244-.02018-.01034-.085-.0022-.01823-.01082-.08789-.00025-.002-.01082-.08692-.00285-.02213-.01033-.082-.003-.02377-.00936-.07291-.002-.01628-.01074-.083-.00325-.02474-.01091-.08268-.00228-.0179-.00976-.07325-.00269-.02018-.01107-.08268-.00317-.02311-.01123-.083-.00244-.0179-.01017-.07357-.00277-.02051-.01156-.08268-.00325-.02344-.0118-.08366-.00139-.00976-.01115-.07813-.00325-.02279-.01172-.08138-.0035-.02441-.01017-.06934-.00374-.02571-.01091-.07455-.004-.02669-.01163-.07845-.00391-.026-.01009-.06706-.00309-.02051-.012-.07877-.00455-.02962-.012-.07845L319.245,75.473l-.01075-.06966-.00358-.02279-.01245-.07942-.00415-.02637-.01269-.08008-.00326-.02051-.01068-.0664-.00421-.02637-.0127-.07845-.00415-.02572-.012-.07389-.00366-.02214-.01164-.07031-.0048-.029-.0131-.0791-.00375-.02214-.012-.07194-.00277-.0166-.01416-.083-.00366-.02148-.014-.08171-.004-.02311-.01155-.06705-.00391-.02247-.01383-.0791-.00481-.02734-.01375-.0778-.00415-.02376-.01115-.0625-.00488-.02735-.01375-.07682-.00513-.02832-.01261-.06966-.00546-.03028-.012-.0651-.00488-.02669-.01416-.07715-.00505-.027-.01326-.07129-.00318-.01725-.01424-.07552-.00529-.02832-.0144-.07617-.00537-.02832-.01107-.05795-.00733-.03808-.01253-.06511-.0061-.0319-.01449-.07454-.00553-.02832-.01091-.05567-.00618-.03157-.01416-.07162-.00676-.0345-.01269-.0638-.00773-.03842-.01083-.054-.00683-.03386-.01449-.07161-.00667-.0332-.01115-.05469-.01009-.04915-.0105-.05111-.00692-.03353-.01521-.07357-.00635-.0306-.01213-.05827-.00749-.03548-.01375-.06543-.00651-.0306-.01587-.07519-.00561-.026-.01311-.06153-.00529-.02441-.01635-.07617-.00627-.029-.01636-.07552-.00545-.02507-.01375-.06315-.00545-.02474-.01661-.07552-.00667-.02995-.01668-.07519-.00456-.02051-.014-.0625-.00683-.0306-.0166-.07389-.00643-.02832-.014-.06185-.00871-.03809-.01334-.05827-.00741-.03255-.01644-.07129-.00765-.0332-.01286-.05567-.00691-.02962-.01652-.071-.00676-.029-.01774-.07552-.00618-.02572-.01376-.05827-.007-.02962-.01749-.07357-.007-.029-.01791-.07487-.0061-.02506-.01432-.05957-.00668-.02767-.01749-.07162-.00838-.0345-.0149-.06088-.00838-.03385-.015-.0612-.00716-.02864-.01864-.0752-.00635-.02539-.01652-.06641-.006-.02376-.01774-.07064-.00708-.028-.01856-.07324-.00765-.03028-.01407-.055-.00912-.03581-.01636-.0638-.00879-.03418-.01831-.071-.00732-.028-.0144-.05566-.00757-.0293-.01872-.07129-.00838-.03222-.01734-.06543-.0087-.03321-.0149-.05631-.00814-.0306-.019-.07162-.00854-.0319-.01506-.056-.011-.041-.01473-.05436-.0092-.03418-.01872-.069-.009-.03288-.01473-.054-.00993-.03646-.01733-.06282-.00863-.03158-.01937-.07-.00919-.03287-.01416-.05111-.00822-.02962-.01953-.07-.00953-.03385-.01969-.07-.008-.028-.01513-.05372-.00961-.03352-.01912-.06739-.01017-.03548-.01563-.05436-.01237-.043-.01465-.05078-.00992-.03451-.01937-.06673-.01026-.03548-.016-.05469-.01115-.03808-.01643-.056-.01026-.03516-.02018-.068-.00968-.03288-.01408-.0472-.014-.0472-.01628-.05469-.01-.0332-.01977-.06641-.01131-.03743-.01368-.04525-.01212-.04-.01847-.06087-.0114-.03744-.01676-.055-.01359-.04427-.014-.04557-.01082-.03549-.02035-.06575-.01172-.03776-.01294-.042-.019-.06088-.01294-.04134-.01147-.03678-.02035-.0651-.0118-.03744-.0153-.0485-.01294-.04069-.01725-.05469-.01172-.03678-.02108-.06608-.01049-.03288-.01547-.04818-.01456-.04525-.017-.05306-.01245-.03841-.0175-.054-.01554-.04786-.01254-.03841-.01391-.04264-.01953-.0599-.01262-.03841-.01521-.04622-.018-.05436-.01351-.041-.01278-.03874-.0214-.06445-.01221-.03646-.01432-.04264-.01961-.05892-.013-.03874-.01359-.04036-.0201-.05925-.01481-.04394-.01229-.03613-.01962-.058-.0153-.04459-.01318-.03874-.02026-.05925-.01433-.04134-.0135-.03938-.017-.04948-.018-.05176-.01277-.03679-.01954-.05631-.01416-.04037-.017-.04882-.01172-.03321-.02214-.06315-.01416-.04036-.0144-.04069-.02108-.05957-.01245-.03516-.015-.042-.02132-.0599-.01456-.04069-.01351-.03776-.02246-.0625-.01343-.03711-.01481-.04134-.02165-.05957-.0153-.04232-.01164-.0319-.02563-.07031-.01074-.02962-.01636-.0446-.01384-.03743-.02319-.06315-.01221-.03321-.022-.05957-.01571-.04232-.0157-.04231-.0114-.0306-.02636-.07031-.01188-.03191-.01522-.04069-.02222-.05924-.01644-.04329-.0122-.03256-.02572-.068-.01213-.0319-.01676-.044-.02189-.05761-.01538-.04037-.01465-.03808-.02263-.05892-.01448-.03776-.01579-.041-.015-.03874-.02442-.06315-.01237-.0319-.02767-.071-.01058-.027-.01847-.04753-.009-.02278-.03068-.07845-.00912-.02312-.03776-.0957-.00211-.00521-.01913-.04817-.01-.0254-.03035-.07617-.01026-.02571-.034-.08529-.00635-.01595-.01945-.04818-.00741-.01855-.03434-.085-.0074-.01856-.06153-.15136-.00805-.01986-.03443-.08431-.00781-.01888-.01994-.04883-.00472-.01139-.03727-.0905-.0083-.02018-.03817-.09212-.00334-.00781-.02115-.05111-.00651-.01563-.03492-.08366-.0096-.02278c-.02108-.05046-.04289-.10222-.06405-.15235l-.00317-.00748-.04248-.10059-.00244-.00553-.06625-.15593-.00756-.01758-.03825-.08919-.0048-.01139-.06649-.154-.0061-.01433-.04021-.09244-.00472-.01107-.02156-.04948-.0057-.013-.04028-.09212-.00521-.01172-.06844-.1556-.00318-.00716-.04207-.09505-.0057-.013-.06787-.152-.00691-.01563-.03964-.08821-.00642-.01433-.06877-.15234-.0061-.01367-.03939-.08659-.00741-.01628-.06893-.151-.00659-.01432-.04362-.09473-.003-.00684-.0236-.0511-.00358-.00749-.04419-.0957-.00472-.01009-.07227-.15528-.00227-.00488-.04672-.09928-.00309-.00684-.074-.1569-.00163-.00326-.04842-.10221-.00179-.00358c-.02491-.05241-.04924-.10352-.07422-.1556l-.00407-.00846-.0485-.10091-.00041-.001c-.02515-.05241-.05086-.10579-.07617-.15788l-.002-.0039-.07617-.15658-.00179-.00358-.04606-.0944-.008-.01628c-.02442-.0498-.04908-.09993-.07365-.14941l-.00432-.00879-.0463-.09342-.00456-.00944-.07454-.14974-.00782-.01563-.04549-.09082-.0035-.00684c-.02539-.05078-.05151-.10253-.07706-.153l-.00391-.00781-.05078-.10026-.00057-.001-.02621-.05176-.00227-.00456-.0494-.09667-.00448-.00879c-.0437-.08529-.087-.1696-.1311-.25489l-.00309-.00618-.07976-.15365-.00187-.00358-.05078-.09733-.00374-.00716-.07951-.15137-.00391-.00748-.05224-.099-.00065-.00131c-.02694-.0511-.05347-.10091-.08057-.15169l-.00464-.00879c-.04565-.08561-.09074-.16992-.13672-.25521l-.00016-.00032q-.32068-.59571-.654-1.18457l-.002-.00358A64.311,64.311,0,0,0,293.0415,33.13574a10.61862,10.61862,0,0,0-6.17146-1.974Z" style="fill:#5e7599"/><path d="M351.95915,107.84668a10.66774,10.66774,0,0,0-10.642,10.09082A10.65331,10.65331,0,0,1,330.66667,128H181.33333a10.66667,10.66667,0,0,0,0,21.33333H330.76855l.02-.00032h.05331l.028-.00033h.02523l.02564-.00032.02376-.00033h.02751l.02262-.00032.0284-.00033.0223-.00033.02832-.00032.02352-.00033.0275-.00032.0223-.00033.02849-.00032.024-.00033.02588-.00065.02531-.00033.02474-.00032.02726-.00065.02393-.00065.025-.00033.02588-.00065.02555-.00065.02548-.00033.02376-.00065.02726-.00065.0245-.00065.02523-.00065.02547-.00065.02441-.00065.02669-.001.02507-.00065.02409-.00065.026-.00065.0262-.001.02328-.00065.02628-.001.02434-.001.02693-.00065.02539-.001.02336-.001.02686-.001.02539-.001.02409-.001.02506-.001.03-.001.02034-.001.03541-.0013.01464-.00065.02881-.0013.03158-.0013.09188-.00423.00284-.00033.04834-.00228.00456-.00032.04362-.002.026-.00163.02466-.001.02328-.0013.02734-.00163.02075-.001.03028-.00163.02067-.0013.0284-.00163.02319-.0013.02824-.00163.02-.001.02995-.00195.02181-.00131.02783-.00162.02409-.00163.02506-.00163.02613-.00163.02376-.0013.02612-.00195.02458-.00163.02433-.00163.02621-.00163.02449-.00162.0249-.00163.02507-.002.02547-.00163.0245-.002.026-.00163.02295-.00163.02832-.00228.02213-.00163.02621-.00195.02441-.00195.02694-.002.02189-.00162.029-.00228.02116-.00163.02832-.00228.02213-.00195.0267-.00195.02319-.002.02938-.0026.01985-.00163.03305-.00293.01643-.0013.03622-.00293.01391-.0013.03427-.00293.01595-.00163c.05061-.00456.09977-.00879.15031-.01367h.00122l.04825-.00456.01107-.001.03955-.0039.008-.001.04191-.0039.01164-.00131.03735-.00358.01823-.00195.03027-.00293.02271-.00228.02734-.00293.02043-.00195.02962-.00326.02051-.00195.029-.00326.01986-.00195.03011-.00325.01945-.00228.03165-.00326.015-.00163.03556-.0039.01489-.00163.03345-.00391.0179-.00195.0302-.00358.02083-.00228.03-.00325.01725-.00228.033-.00358.0175-.00228.033-.00391.01505-.00162.0341-.00424.01676-.002.0341-.00423.01392-.00163.03548-.00423.01522-.00195.03336-.00424.0162-.00195.03157-.00391.0188-.0026.03369-.00423.01416-.00195.035-.00424.01538-.00227.03613-.00456.01253-.00163.03744-.00488.01229-.002c.06657-.00878.13143-.01757.19791-.027l.00212-.00033c.03223-.00423.06478-.00911.09692-.01367l.006-.00065.04362-.00651.00683-.001.04167-.00586.00985-.00163.0415-.00618.00309-.00033.04452-.00651.01041-.00162.03907-.00586.01139-.00163.03564-.00554.01661-.0026.03385-.00521.014-.00228.03426-.0052.015-.00228.03524-.00554.01375-.00228.03426-.0052.01482-.00261.03621-.00553.01172-.002.03638-.00585.01326-.00228.036-.00586.01343-.00228.034-.00554.01538-.0026.03475-.00586.014-.00228.03483-.00586.01359-.00228.03752-.00618.01074-.00195.0398-.00684.0083-.0013.04484-.00781.00317-.00065.043-.00749.00716-.0013.04737-.00814.00032-.00033.04728-.00814.00236-.00065.04769-.00846.00131-.00033q.19689-.03515.39274-.07324h.00024l.0481-.00944.003-.00065.04614-.00879.00179-.00032.04671-.00944.00366-.00065.04387-.00879.00716-.00131.04118-.00813.00846-.002.03972-.00781.00911-.00195.03849-.00782.0118-.0026.03662-.00749.01123-.00227.0376-.00782.01066-.00228.03833-.00781.0092-.00195.03874-.00814.01066-.00228.03768-.00814.01025-.002.03882-.00846.00911-.002.04012-.00846.00782-.00163.0393-.00879.00977-.002.041-.00911.006-.00131.04427-.00976.0035-.00065c.22656-.05013.45044-.10222.67521-.1569l.00342-.001.04557-.01107h.00032l.04745-.01172.00114-.00032.09334-.02344.00537-.0013.04273-.01074.0048-.001.04223-.01074.00643-.00163.04183-.01074.0057-.0013.04069-.01075.00806-.00195.04126-.01074.00512-.0013.0433-.01107.00382-.001.04476-.01172.00261-.00065.04524-.012.00228-.00065q.66943-.17676,1.32568-.38086l.00106-.00033a32.01926,32.01926,0,0,0,22.438-28.83431,10.66651,10.66651,0,0,0-10.0765-11.19792c-.19645-.01041-.39095-.01562-.58528-.01562Z" style="fill:#5e7599"/><path d="M320,362.66667h42.66667A21.33333,21.33333,0,0,1,384,384v12.49678a21.3333,21.3333,0,0,1-6.24839,15.08494l-30.16989,30.16989A21.3333,21.3333,0,0,1,332.49678,448H320a21.33333,21.33333,0,0,1-21.33333-21.33333V384A21.33333,21.33333,0,0,1,320,362.66667Z" style="fill:#dfe5ff"/><rect x="170.66667" y="106.66667" width="42.66667" height="21.33333" rx="10.66666" ry="10.66666" style="fill:#cdd4df"/><path d="M256,42.66667h-.09326l-.04175.00032h-.06771l-.02913.00033-.03793.00032h-.03068l-.03751.00033-.02832.00032-.03947.00033-.02905.00033-.03809.00032-.02979.00033-.03751.00032-.03125.00065-.03613.00033-.03077.00032-.03621.00066-.03255.00065-.03443.00032-.0323.00065-.03516.00065-.03288.00065-.03467.00066-.03182.00065-.03548.00065-.03214.001-.03605.00066-.03044.00065-.03589.001-.0328.001-.03361.00065-.03271.001-.03589.001-.03157.001-.03549.001-.03141.001-.03206.001-.03638.001-.025.001-.04118.00131-.0306.001-.05754.002-.04516.00163-.02686.001-.0389.00163-.035.0013-.03255.0013-.0319.0013-.03516.0013-.03019.00131-.03744.00162-.03.00131-.03589.00162-.03263.00131-.03467.00162-.03141.00131-.03548.00162-.03052.00163-.03735.00163-.03068.00163-.03361.00162-.03451.002-.03361.00162-.03166.00163-.03556.002-.03068.00162-.03654.002-.03092.00162-.03451.002-.03206.002-.0363.00195-.03011.002-.036.002-.03052.002-.03629.00228-.03117.00163-.03174.00228-.03556.002-.03.002-.03638.00261-.02921.00163-.03687.0026-.03328.00228-.0328.00228-.03638.00228-.04427.00325-.0511.00358-.02621.002-.04036.00293-.02946.002-.0367.00293-.03459.0026-.03052.00228-.03711.0026-.02986.00228-.03239.00261-.03443.0026-.033.00293-.03271.00261-.033.0026-.03345.0026-.0328.00293-.03393.00261-.0306.0026-.03573.00293-.03255.00293-.03166.0026-.03515.00326-.03036.0026-.03678.00326-.02889.0026-.03524.00326-.03247.00293-.03393.00293-.03207.00325-.03263.00293-.03426.00326-.03239.00293-.0341.00325-.0306.00293-.03564.00358-.032.00326-.0284.0026-.03768.00391-.02278.00228-.0446.00456-.00781.00065-.05632.00586-.01432.00162c-.075.00749-.14925.01563-.2242.02377l-.02157.00228-.0402.00455-.02474.00261-.03971.00455-.02613.00293-.0393.00424-.02556.00292-.03727.00424-.03.00358-.03369.0039-.03141.00358-.03434.00424-.03142.00358-.03393.0039-.03117.00391-.03345.00391-.0332.00423-.03215.0039-.03222.00391-.03386.00423-.031.00391-.03532.00423-.028.00358-.03727.00488-.02986.00358-.03451.00456-.03044.00391-.035.00455-.03011.00391-.035.00456-.02889.0039-.03671.00489-.02913.0039-.03524.00489-.02929.0039-.03646.00489-.024.00325-.04126.00586-.01253.00163c-.05428.00748-.10938.0153-.16366.02311l-.01587.00228-.04126.00586-.02376.00358-.03735.00521-.02759.00423-.03817.00553-.02628.00391-.04.00586-.02393.00358-.0415.00618-.02311.00358-.04126.00619-.02263.00358-.04248.00618-.02254.00359-.04028.00618-.02425.00391-.04037.00618-.02449.00391-.03817.00586-.0271.00455-.03841.00586-.02515.00424-.03906.00618-.02474.00391-.04061.00683-.02327.00358-.04.00651-.0236.00391-.0424.00716-.02067.00358-.04143.00684-.02547.00423-.03987.00684-.02263.00358-.04036.00683-.02328.00423-.043.00717-.00854.00162-.05477.00944-.005.001c-.10091.01758-.2.03516-.3007.05339l-.01017.00195-.04354.00781-.02189.00391-.04459.00814-.01734.00325-.0437.00814-.02181.00423-.04183.00781-.02075.00391-.04216.00781-.02246.00423-.04215.00814-.02018.00391-.04248.00814-.02222.00423-.041.00781-.02311.00456-.03849.00748-.02661.00521-.03817.00749-.02352.00456-.04012.00814-.0236.00455-.04093.00814-.01978.00391-.04378.00879-.01888.0039-.04639.00944-.01042.002-.05354.01106-.00505.001c-.18424.03776-.36686.0765-.55029.11686l-.00594.0013-.04737.01042-.01733.00358-.04435.00977-.01823.00423-.04655.01041-.01514.00326-.04752.01074-.01555.00358-.04557.01009-.01742.00391-.04557.01042-.017.0039-.04638.01075-.01482.00325-.04768.01107-.01579.00358-.045.01074-.01848.00423-.04476.01042-.01692.00391-.0459.01074-.01506.00358-.04793.01139-.01392.00358-.0476.01107-.01539.00391-.04768.01139-.01189.00293-.05045.012-.0092.00228q-.30151.07324-.60148.15072l-.00521.0013-.0577.015-.00276.001-.05591.01432-.00667.002-.05518.01432-.0057.00163-.0524.01367-.01156.00326-.051.01334-.00879.00261-.05306.014-.00813.00228-.05339.01432-.00732.002-.05331.01432-.009.0026-.0529.01433-.00667.002-.05509.015-.00448.00131q-.42152.11573-.84025.23991l-.00521.00162-.05591.0166-.00415.00131-.054.01627-.00765.00228-.05388.01595-.00586.002-.05387.01627-.00692.002-.0564.01726-.00122.00032-.058.01791-.00309.001c-.44011.13477-.87468.276-1.30868.42481l-.00179.00065-.0581.01986h-.00033l-.05892.0205h-.00008l-.05819.02019-.00228.00065-.05672.01985-.00268.001a42.76408,42.76408,0,0,0-20.27971,14.986l-.00024.00033q-.36414.49365-.71387.99739l-.00073.001q-.33276.47949-.65169.96647l-.00074.0013-.03019.04623-.00512.00781-.02906.0446-.00423.00651-.02905.04459-.00513.00782-.02889.04459-.00431.00684-.02857.04427-.00561.00879-.02922.04525-.00252.00423-.03027.04687-.00415.00651-.02938.0459-.00342.00553-.02913.04558-.00562.00879-.0284.04492-.0022.00325c-.10775.16993-.21517.34213-.32055.51368l-.00432.00716-.02474.04-.00854.014-.02328.03809-.00936.0153-.02327.03841-.00887.01432-.02311.03809-.01018.01693-.01945.03222-.01424.02344-.01839.0306-.01359.02246-.01945.03223-.012.02018-.02043.03418-.01237.02051-.019.0319-.0131.02181-.01978.03353-.012.02018-.01937.03255-.01254.02116-.01993.03385-.01245.02084-.01864.0319-.01327.02246-.01945.03288-.01058.01823-.02083.03548-.01066.01823-.02124.03646-.00985.01692-.02124.03646-.01082.01888c-.03418.05859-.06689.11556-.10075.17448l-.01391.02409-.01449.02539-.01611.02832-.01856.03223-.01245.02213-.0201.03516-.01042.01855-.01823.0319-.01416.02507-.0157.028-.01473.026-.01652.02929-.01481.02637-.01628.029-.01367.02441-.01709.0306-.01449.026-.016.02864-.01432.02572-.0162.02929-.015.027-.01514.02735-.01546.028-.01489.027-.0162.0293-.01424.026-.01579.02864-.0144.02637-.01644.03027-.01391.02539-.016.02963-.014.02539-.01709.03157-.01319.02442-.01668.03092-.0131.02442-.01913.03548-.01074.01985-.02335.04362-.00635.01172-.06.11231-.00659.01237-.02319.04394-.00749.014-.02238.04232-.00895.01725-.0201.03809-.01058.02018-.01929.03678-.00993.01888-.01953.03744-.00968.01855-.01962.03776-.0105.02018-.019.03646-.00936.01823-.0201.03874-.00927.0179-.02019.03907-.00846.0166-.02034.03971-.00936.01823-.02035.03971-.00773.0153-.02148.042-.00774.0153-.02115.04167-.00749.015-.02149.04231-.00756.015-.02133.04231-.00708.01433-.02311.0459-.00512.01009-.02727.05468-.00048.001-.02727.05469-.00179.00358c-.07674.15462-.15169.30762-.22664.46322l-.00187.0039-.0538.112-.00244.00521-.02588.05436-.00089.00163-.026.05469-.003.00651-.02491.05273-.00219.00456-.02523.05338-.00236.00521-.02531.05371-.002.00423-.02449.05241-.00342.00749-.02547.05469-.00065.0013c-.13656.29362-.26929.58789-.39933.88509l-.001.00228c-.026.05957-.05111.11719-.07682.17676l-.00033.00065-.0249.05794-.00122.00261c-.03418.07975-.06682.15592-.10051.23567l-.00122.00293a42.43377,42.43377,0,0,0-3.25008,13.6263,10.66757,10.66757,0,0,0,9.89819,11.3405q.38086.02637.75643.02637a10.66806,10.66806,0,0,0,10.6298-9.92155A21.38045,21.38045,0,0,1,256,64a10.66667,10.66667,0,1,0,0-21.33333Z" style="fill:#cdd4df"/><rect x="317.41184" y="390.24839" width="47.84298" height="30.16989" rx="15.08493" ry="15.08493" transform="translate(-186.63973 360.07852) rotate(-45)" style="fill:#eff2ff"/></g></svg>