<?xml version="1.0" encoding="UTF-8"?>
<!DOCTYPE svg PUBLIC "-//W3C//DTD SVG 1.1//EN" "http://www.w3.org/Graphics/SVG/1.1/DTD/svg11.dtd">
<!-- Creator: CorelDRAW -->
<svg xmlns="http://www.w3.org/2000/svg" xml:space="preserve" width="2048px" height="2048px" style="shape-rendering:geometricPrecision; text-rendering:geometricPrecision; image-rendering:optimizeQuality; fill-rule:evenodd; clip-rule:evenodd"
viewBox="0 0 2048 2048"
 xmlns:xlink="http://www.w3.org/1999/xlink">
 <defs>
  <style type="text/css">
   <![CDATA[
    .fil2 {fill:none}
    .fil5 {fill:#C2C4C4}
    .fil4 {fill:#FEFEFE}
    .fil7 {fill:#26A69A}
    .fil1 {fill:#512DA8}
    .fil0 {fill:#7E57C2}
    .fil3 {fill:#E53935}
    .fil6 {fill:#FBC02D}
   ]]>
  </style>
   <clipPath id="id0">
    <path d="M1024 0c565.541,0 1024,458.459 1024,1024 0,565.541 -458.459,1024 -1024,1024 -565.541,0 -1024,-458.459 -1024,-1024 0,-565.541 458.459,-1024 1024,-1024z"/>
   </clipPath>
 </defs>
 <g id="Layer_x0020_1">
  <metadata id="CorelCorpID_0Corel-Layer"/>
  <path class="fil0" d="M1024 0c565.541,0 1024,458.459 1024,1024 0,565.541 -458.459,1024 -1024,1024 -565.541,0 -1024,-458.459 -1024,-1024 0,-565.541 458.459,-1024 1024,-1024z"/>
  <g style="clip-path:url(#id0)">
   <g id="_308712616">
    <g>
     <polygon id="_3039318561" class="fil1" points="1452.69,463.999 2588.57,1599.88 2588.57,2719.88 1452.69,1584 "/>
     <polygon id="_303931520" class="fil1" points="1452.69,1584 2588.57,2719.88 1731.2,2719.88 595.314,1584 "/>
    </g>
    <polygon id="_308712256" class="fil1" points="1452.69,463.999 1452.69,1584 595.314,1584 595.314,463.999 "/>
   </g>
  </g>
  <path class="fil2" d="M1024 0c565.541,0 1024,458.459 1024,1024 0,565.541 -458.459,1024 -1024,1024 -565.541,0 -1024,-458.459 -1024,-1024 0,-565.541 458.459,-1024 1024,-1024z"/>
  <polygon class="fil3" points="1452.69,1584 595.314,1584 595.314,464 1452.69,464 "/>
  <polygon class="fil4" points="1413.01,1535.05 634.993,1535.05 634.993,512.951 1413.01,512.951 "/>
  <polygon class="fil5" points="1340.55,1260.52 955.331,1260.52 955.331,1222.52 1340.55,1222.52 "/>
  <polygon class="fil5" points="1340.55,1318.45 955.331,1318.45 955.331,1280.44 1340.55,1280.44 "/>
  <polygon class="fil5" points="1340.55,1376.37 955.331,1376.37 955.331,1338.36 1340.55,1338.36 "/>
  <polygon class="fil5" points="1340.55,1434.3 955.331,1434.3 955.331,1396.29 1340.55,1396.29 "/>
  <polygon class="fil6" points="707.448,1221.4 707.448,1435.41 921.451,1435.41 921.451,1221.4 "/>
  <polygon class="fil5" points="1337.69,650.591 710.311,650.591 710.311,612.589 1337.69,612.589 "/>
  <polygon class="fil5" points="1337.69,715.08 710.311,715.08 710.311,677.078 1337.69,677.078 "/>
  <polygon class="fil5" points="1337.69,780.149 710.311,780.149 710.311,742.147 1337.69,742.147 "/>
  <polygon class="fil7" points="1051.41,820.051 1051.41,1160.64 1337.69,1160.64 1337.69,820.051 "/>
  <polygon class="fil1" points="710.311,820.051 710.311,1160.64 996.589,1160.64 996.589,820.051 "/>
 </g>
</svg>
