<?xml version="1.0" encoding="UTF-8"?>
<!DOCTYPE svg PUBLIC "-//W3C//DTD SVG 1.1//EN" "http://www.w3.org/Graphics/SVG/1.1/DTD/svg11.dtd">
<!-- Creator: CorelDRAW -->
<svg xmlns="http://www.w3.org/2000/svg" xml:space="preserve" width="2048px" height="2048px" style="shape-rendering:geometricPrecision; text-rendering:geometricPrecision; image-rendering:optimizeQuality; fill-rule:evenodd; clip-rule:evenodd"
viewBox="0 0 2048 2048"
 xmlns:xlink="http://www.w3.org/1999/xlink">
 <defs>
  <style type="text/css">
   <![CDATA[
    .fil2 {fill:none}
    .fil1 {fill:#00796B}
    .fil0 {fill:#26A69A}
    .fil20 {fill:#BABABA}
    .fil5 {fill:#C57040}
    .fil4 {fill:#E08045}
    .fil3 {fill:#FFAF68}
    .fil6 {fill:#FFF8E1}
    .fil19 {fill:#313F45;fill-rule:nonzero}
    .fil16 {fill:#3A3A3A;fill-rule:nonzero}
    .fil14 {fill:#424242;fill-rule:nonzero}
    .fil8 {fill:#616161;fill-rule:nonzero}
    .fil13 {fill:#666257;fill-rule:nonzero}
    .fil10 {fill:#99D19C;fill-rule:nonzero}
    .fil11 {fill:#A5D6A7;fill-rule:nonzero}
    .fil17 {fill:#B99576;fill-rule:nonzero}
    .fil18 {fill:#BABABA;fill-rule:nonzero}
    .fil15 {fill:#D37905;fill-rule:nonzero}
    .fil7 {fill:#E08045;fill-rule:nonzero}
    .fil9 {fill:#FAFAFA;fill-rule:nonzero}
    .fil12 {fill:#FFA022;fill-rule:nonzero}
   ]]>
  </style>
   <clipPath id="id0">
    <path d="M1024 -0.0011811c565.541,0 1024,458.461 1024,1024 0,565.541 -458.461,1024 -1024,1024 -565.541,0 -1024,-458.461 -1024,-1024 0,-565.541 458.461,-1024 1024,-1024z"/>
   </clipPath>
 </defs>
 <g id="Layer_x0020_1">
  <metadata id="CorelCorpID_0Corel-Layer"/>
  <path class="fil0" d="M1024 -0.0011811c565.541,0 1024,458.461 1024,1024 0,565.541 -458.461,1024 -1024,1024 -565.541,0 -1024,-458.461 -1024,-1024 0,-565.541 458.461,-1024 1024,-1024z"/>
  <g style="clip-path:url(#id0)">
   <g id="_517132168">
    <g>
     <polygon id="_4899618001" class="fil1" points="1372.18,488.783 2508.06,1624.67 2508.06,1713.18 1372.18,577.3 "/>
     <polygon id="_489961512" class="fil1" points="1416.25,1561.63 2552.13,2697.51 2552.01,2699.8 2551.67,2702.02 2551.12,2704.16 2550.37,2706.22 2549.43,2708.17 2548.31,2710.02 2547.02,2711.74 2545.57,2713.33 2543.99,2714.77 2542.26,2716.06 2540.42,2717.18 2538.46,2718.12 2536.41,2718.88 2534.26,2719.43 2532.04,2719.77 2529.76,2719.88 1393.87,1584 1396.16,1583.88 1398.38,1583.55 1400.53,1582.99 1402.58,1582.24 1404.54,1581.3 1406.38,1580.18 1408.1,1578.89 1409.69,1577.45 1411.14,1575.86 1412.42,1574.14 1413.55,1572.29 1414.49,1570.34 1415.24,1568.28 1415.79,1566.14 1416.13,1563.92 "/>
     <polygon id="_489962376" class="fil1" points="1393.87,1584 2529.76,2719.88 1888.5,2719.88 752.617,1584 "/>
     <polygon id="_489962472" class="fil1" points="752.617,1584 1888.5,2719.88 1876.09,2719.88 740.206,1584 "/>
     <polygon id="_489962640" class="fil1" points="737.356,1583.95 1873.24,2719.83 1872.46,2719.82 1871.67,2719.77 1870.89,2719.7 1870.1,2719.6 1869.32,2719.48 1868.53,2719.32 1867.75,2719.14 1866.96,2718.92 731.079,1583.04 731.865,1583.25 732.65,1583.44 733.437,1583.6 734.223,1583.72 735.009,1583.82 735.793,1583.89 736.576,1583.93 "/>
     <polygon id="_489963240" class="fil1" points="740.206,1584 1876.09,2719.88 1873.24,2719.88 737.356,1584 "/>
     <polygon id="_489963576" class="fil1" points="731.079,1583.04 1866.96,2718.92 1864.19,2718.08 1861.46,2717.22 1858.77,2716.33 1856.11,2715.41 1853.49,2714.46 1850.91,2713.49 1848.37,2712.49 1845.86,2711.45 1843.39,2710.4 1840.95,2709.31 1838.56,2708.19 1836.2,2707.05 1833.88,2705.88 1831.6,2704.68 1829.35,2703.45 1827.14,2702.19 1824.97,2700.9 1822.84,2699.59 1820.75,2698.24 1818.69,2696.87 1816.68,2695.47 1814.7,2694.04 1812.76,2692.57 1810.85,2691.08 1808.99,2689.56 673.11,1553.68 674.973,1555.2 676.875,1556.69 678.815,1558.15 680.794,1559.58 682.811,1560.99 684.867,1562.36 686.96,1563.71 689.092,1565.02 691.262,1566.31 693.469,1567.56 695.715,1568.79 697.998,1570 700.319,1571.17 702.676,1572.31 705.073,1573.43 707.506,1574.51 709.977,1575.57 712.484,1576.6 715.029,1577.61 717.612,1578.58 720.232,1579.53 722.888,1580.45 725.581,1581.34 728.312,1582.2 "/>
     <polygon id="_489963384" class="fil1" points="1366.51,473.553 2502.4,1609.44 2503.25,1610.48 2504.04,1611.58 2504.77,1612.72 2505.43,1613.91 2506.03,1615.13 2506.55,1616.4 2507,1617.7 2507.38,1619.04 2507.67,1620.4 2507.89,1621.8 2508.02,1623.22 2508.06,1624.67 1372.18,488.783 1372.14,487.339 1372,485.918 1371.79,484.522 1371.5,483.155 1371.12,481.819 1370.67,480.517 1370.15,479.25 1369.55,478.023 1368.89,476.837 1368.16,475.695 1367.37,474.599 "/>
     <polygon id="_489963408" class="fil1" points="1416.25,599.665 2552.13,1735.55 2552.13,2697.51 1416.25,1561.63 "/>
     <polygon id="_489963432" class="fil1" points="1405.92,577.293 2541.8,1713.17 2545.78,1719.94 1409.9,584.057 "/>
     <polygon id="_489963720" class="fil1" points="1410.62,584.829 2546.5,1720.71 2547.18,1721.52 2547.82,1722.36 2548.43,1723.22 2548.99,1724.12 2549.51,1725.05 2549.99,1726 2550.43,1726.98 2550.81,1727.98 2551.15,1729 2551.45,1730.05 2551.69,1731.11 2551.88,1732.2 2552.01,1733.3 2552.1,1734.42 2552.13,1735.55 1416.25,599.665 1416.22,598.534 1416.13,597.416 1416,596.315 1415.81,595.232 1415.56,594.167 1415.27,593.122 1414.93,592.097 1414.54,591.095 1414.11,590.118 1413.63,589.165 1413.11,588.24 1412.55,587.341 1411.94,586.473 1411.3,585.636 "/>
    </g>
    <path id="_517132720" class="fil1" d="M1416.25 599.665l0 961.964c0,12.3555 -10.0169,22.3713 -22.3713,22.3713l-641.258 0 -12.411 0 -2.85 0 0 -0.0519685c-2.0752,-0.00236221 -4.18465,-0.295276 -6.27638,-0.90945 -29.7118,-8.77678 -53.1591,-22.2284 -69.9296,-40.8331 -17.0516,-18.9154 -26.7933,-42.4819 -28.7823,-71.1296 -0.126378,-0.96378 -0.19252,-1.9441 -0.19252,-2.94213l0 -913.028c-2.2004,-17.6043 4.38189,-33.5729 16.598,-46.2437 21.9933,-22.8095 70.9477,-41.4697 158.008,-43.2107 179.731,-3.58583 362.302,-0.21378 542.347,-0.21378 5.03386,0 9.68032,1.66299 13.4185,4.47048 5.83701,4.23544 9.63308,11.113 9.63308,18.8752l0 88.5166 33.7382 -0.00708662 3.98032 6.76418c3.92717,4.02992 6.34725,9.53741 6.34725,15.6083z"/>
   </g>
  </g>
  <path class="fil2" d="M1024 -0.0011811c565.541,0 1024,458.461 1024,1024 0,565.541 -458.461,1024 -1024,1024 -565.541,0 -1024,-458.461 -1024,-1024 0,-565.541 458.461,-1024 1024,-1024z"/>
  <path class="fil3" d="M740.206 577.426l665.712 -0.133465 3.98032 6.76418c3.92717,4.02992 6.34725,9.53741 6.34725,15.6083l0 961.964c0,12.3555 -10.0169,22.3713 -22.3713,22.3713l-653.669 0 0 -1006.57z"/>
  <path class="fil4" d="M734.329 577.432l5.87481 -0.0011811 0 1006.34c-2.97047,0.382677 -6.06615,0.170079 -9.12402,-0.72756 -29.7118,-8.77678 -53.1591,-22.2284 -69.9296,-40.8331 -17.0516,-18.9154 -26.7933,-42.4819 -28.7823,-71.1296 -0.126378,-0.96378 -0.19252,-1.9441 -0.19252,-2.94213l0 -913.028c-2.2004,-17.6043 4.38189,-33.5729 16.598,-46.2437 21.9933,-22.8095 70.9477,-41.4697 158.008,-43.2107 179.731,-3.58583 362.302,-0.21378 542.347,-0.21378 10.2661,0 18.9177,6.91772 21.5492,16.3441 4.90985,11.263 -4.11969,24.0697 -18.5965,27.2752 -9.9945,0.62126 -18.4547,1.12441 -28.3299,1.12795l-524.176 0.216142c-12.5705,0.69567 -55.7292,-0.466536 -87.032,7.52008 -68.6162,17.5075 -29.7296,59.6977 21.7854,59.5111z"/>
  <path class="fil5" d="M737.356 564.471l0 1019.53 15.261 0 0 -1018.92c-0.574016,0.141732 -1.15748,0.231496 -1.75158,0.263386 -4.61811,0.249213 -9.13465,-0.0625985 -13.5095,-0.869292z"/>
  <path class="fil6" d="M1339.95 510.45l-21.5079 0.00944883 -525.749 0.211417c-75.7323,0.0295276 -112.109,12.7996 -116.665,31.3914 -3.5374,14.4366 10.2898,35.7874 51.4181,35.6386 0.519685,-0.0897638 1.01575,-0.138189 1.47756,-0.138189l613.568 0 -2.54173 -67.1127z"/>
  <path class="fil7" d="M1372.18 488.783c0,-12.8705 -10.435,-23.3055 -23.3055,-23.3055 -12.8705,0 -23.3043,10.435 -23.3043,23.3055l0 20.7673 0 68.0079 46.6099 0 0 -88.7753z"/>
  <rect class="fil5" x="937.43" y="809.699" width="264.005" height="28.12"/>
  <rect class="fil5" x="838.817" y="887.026" width="461.23" height="28.12"/>
  <path class="fil8" d="M1124.33 1087.2c-4.84134,4.84134 -11.5299,7.83662 -18.9165,7.83662 -7.38662,0 -14.0752,-2.99528 -18.9165,-7.83662 -4.84134,-4.84134 -7.83662,-11.5299 -7.83662,-18.9165 0,-7.38662 2.99528,-14.0752 7.83662,-18.9165 4.84134,-4.84134 11.5299,-7.83544 18.9165,-7.83544 7.38662,0 14.0752,2.9941 18.9165,7.83544 4.84134,4.84134 7.83544,11.5299 7.83544,18.9165 0,7.38662 -2.9941,14.0752 -7.83544,18.9165z"/>
  <path class="fil9" d="M1105.42 1264.94l-166.99 0c-4.9252,0 -8.91851,-3.99331 -8.91851,-8.91733 0,-48.5752 19.6902,-92.5524 51.5233,-124.386 31.8343,-31.8331 75.8103,-51.5233 124.386,-51.5233 48.5741,0 92.5513,19.6902 124.386,51.5233 31.8331,31.8331 51.5221,75.8103 51.5221,124.386 0,4.92402 -3.99213,8.91733 -8.91733,8.91733l-166.99 0z"/>
  <path class="fil10" d="M1105.42 1080.11l0.253937 0.0011811c48.4737,0.068504 92.3528,19.7445 124.132,51.5221 31.8331,31.8331 51.5221,75.8103 51.5221,124.386 0,4.92402 -3.99213,8.91733 -8.91733,8.91733l-166.916 0 -0.0744095 0 0 -184.826z"/>
  <path class="fil11" d="M1105.42 1264.94l-166.99 0c-4.9252,0 -8.91851,-3.99331 -8.91851,-8.91733 0,-48.5752 19.6902,-92.5524 51.5233,-124.386 31.8343,-31.8331 75.8103,-51.5233 124.386,-51.5233l0 184.826z"/>
  <path class="fil8" d="M913.602 1247.39c-4.9252,0 -8.91733,3.99213 -8.91733,8.91733 0,4.9252 3.99213,8.91733 8.91733,8.91733l383.632 0c4.9252,0 8.91733,-3.99213 8.91733,-8.91733 0,-4.9252 -3.99213,-8.91733 -8.91733,-8.91733l-383.632 0z"/>
  <path class="fil12" d="M1169.32 1281.77c1.55433,0.407481 2.57126,0.994489 1.73858,-0.0507874 -0.196063,-0.246851 -0.750001,-0.144095 -1.73858,0.0507874z"/>
  <polygon class="fil13" points="908.95,1251.15 908.691,1250.93 908.949,1251.15 "/>
  <polygon class="fil14" points="911.057,1265.22 910.798,1265.01 911.055,1265.22 "/>
  <path class="fil15" d="M1165.93 1282.03c1.52244,0.400394 2.51693,0.97441 1.70197,-0.0496063 -0.19252,-0.240945 -0.733465,-0.140551 -1.70197,0.0496063z"/>
  <polygon class="fil16" points="911.051,1252.06 910.798,1251.84 911.05,1252.06 "/>
  <path class="fil17" d="M1099.81 1271.07c19.7587,-1.77874 40.767,-3.67087 58.6855,-5.74961 0.479528,-0.0814961 0.973229,-0.124016 1.47638,-0.124016 10.0547,0 17.4721,1.12677 21.3024,5.93504 25.2449,31.6925 -99.5765,50.1142 -111.752,52.6772 -22.6288,4.76221 -20.8311,5.16733 -48.9319,1.34646 -21.939,-2.98347 -49.6063,-7.86969 -64.0252,-10.6087 -7.59568,-1.44095 -14.8099,-1.88977 -21.7925,-1.16575 -6.71812,0.696851 -13.3099,2.49449 -19.9252,5.55473 -4.01693,2.22992 -28.1622,7.47402 -28.1622,3.0189l-1.86024 -55.6926c19.7244,-4.64174 27.3732,-26.1095 50.478,-36.9012 17.5925,-5.31142 37.9181,-7.87796 46.6241,-7.62048 9.60355,0.284646 19.2626,-1.49528 27.2351,-2.96457 8.3067,-1.52953 15.0744,-2.77677 20.4827,-1.55079 4.58859,1.04173 8.23111,3.87048 10.4835,7.6004 1.61693,2.67874 2.5063,5.86063 2.48504,9.17599 -0.0212599,3.25158 -0.90945,6.59174 -2.83937,9.64607 -2.6941,4.26615 -7.34174,7.95709 -14.3693,9.83268 -5.25119,1.40079 -11.2441,2.52402 -17.1567,3.63307 -2.95512,0.553937 -5.90079,1.10669 -7.19528,1.36654 -7.7315,1.55669 -14.5394,1.59095 -14.9823,2.16614 0.056693,0.272835 0.0992127,0.551575 0.129921,0.833859 0.801969,0.532678 9.71221,3.47244 20.7284,6.9378 38.9292,12.2469 52.4363,6.2941 92.882,2.65276z"/>
  <path class="fil18" d="M1185.62 1283.88c-2.45197,7.84489 -14.5358,14.2099 -30.1843,19.2945 -4.57441,-6.40512 -5.56536,-12.3177 5.97166,-17.7425 9.11103,-4.28504 17.6563,-4.3441 24.2126,-1.55197z"/>
  <path class="fil19" d="M900.575 1251.18c0,-4.82126 -11.2547,-3.04607 -25.1374,-3.04607 -13.8827,0 -25.1374,-1.7752 -25.1374,3.04607l0 96.6639c0,4.82126 11.2547,3.61536 25.1374,3.61536 13.8827,0 25.1374,1.20591 25.1374,-3.61536l0 -96.6639z"/>
  <path class="fil20" d="M1042.99 1228.53c2.64213,8.46379 -1.39961,17.2914 -13.2331,20.9858 -11.8347,3.69331 -15.4335,-2.71299 -18.0756,-11.1768 -2.64095,-8.46497 -3.32599,-15.7807 8.50867,-19.474 11.8347,-3.69449 20.1591,1.20118 22.8,9.66497z"/>
  <polygon class="fil14" points="916.607,1265.69 916.344,1265.46 916.606,1265.69 "/>
 </g>
</svg>
